<svg width="40" height="40" fill="none" xmlns="http://www.w3.org/2000/svg"><path d="M20 40c11.046 0 20-8.954 20-20S31.046 0 20 0 0 8.954 0 20s8.954 20 20 20z" fill="#F0F0F0"/><path d="M4.134 7.824A19.927 19.927 0 00.69 14.783h10.405l-6.96-6.96zm35.177 6.959a19.927 19.927 0 00-3.445-6.96l-6.96 6.96h10.405zM.689 25.218a19.93 19.93 0 003.445 6.958l6.96-6.959H.688zM32.176 4.134A19.927 19.927 0 0025.217.69v10.404l6.96-6.959zM7.823 35.865a19.93 19.93 0 006.96 3.446V28.907l-6.96 6.958zM14.782.689a19.93 19.93 0 00-6.959 3.445l6.96 6.96V.688zm10.435 38.622a19.93 19.93 0 006.96-3.445l-6.96-6.96v10.405zm3.69-14.093l6.959 6.959a19.926 19.926 0 003.445-6.96H28.907z" fill="#0052B4"/><path d="M39.83 17.391H22.61V.17a20.198 20.198 0 00-5.218 0v17.222H.17a20.198 20.198 0 000 5.218h17.222v17.22a20.191 20.191 0 005.218 0V22.609h17.22a20.191 20.191 0 000-5.218z" fill="#D80027"/><path d="M25.217 25.218l8.925 8.924c.41-.41.802-.84 1.176-1.284l-7.641-7.64h-2.46zm-10.435 0l-8.925 8.924c.41.41.84.802 1.284 1.176l7.641-7.641v-2.46zm.001-10.435L5.858 5.858c-.41.41-.802.84-1.175 1.284l7.64 7.64h2.46zm10.434 0l8.925-8.925c-.41-.41-.84-.802-1.284-1.176l-7.64 7.641v2.46z" fill="#D80027"/></svg>