<svg width="300" height="150" fill="none" xmlns="http://www.w3.org/2000/svg"><path fill="#FC8B4C" d="M0 0h150v150H0z"/><circle cx="36.428" cy="113.571" r="25.786" fill="#FDE9D4" stroke="#236967" stroke-width="2"/><circle cx="113.572" cy="36.429" r="25.786" fill="#FDE9D4" stroke="#236967" stroke-width="2"/><path d="M7.854 42.5A61 61 0 0042.5 7.854 61 61 0 0077.146 42.5 61 61 0 0042.5 77.146 61 61 0 007.854 42.5zm65 65A60.999 60.999 0 00107.5 72.854a60.999 60.999 0 0034.646 34.646 61 61 0 00-34.646 34.646A60.999 60.999 0 0072.854 107.5z" fill="#FDE9D4" stroke="#236967" stroke-width="2"/><path d="M42.5 26.429A27.202 27.202 0 0058.572 42.5 27.202 27.202 0 0042.5 58.572 27.202 27.202 0 0026.43 42.5 27.201 27.201 0 0042.5 26.43zm65 65a27.201 27.201 0 0016.072 16.071 27.202 27.202 0 00-16.072 16.072A27.201 27.201 0 0091.429 107.5 27.2 27.2 0 00107.5 91.429z" fill="#236967"/><path fill="#FDE9D4" d="M150 0h150v150H150z"/><path d="M225 101.786l-32.143-53.572h64.286L225 101.786z" fill="#236967"/><path fill="#FE7167" d="M211.071 0h27.857v48.214h-27.857z"/><circle cx="225" cy="128.571" r="9.714" fill="#FE7167" stroke="#236967" stroke-width="2"/><circle cx="257.143" cy="128.571" r="9.714" fill="#FE7167" stroke="#236967" stroke-width="2"/><circle cx="192.857" cy="128.571" r="9.714" fill="#FE7167" stroke="#236967" stroke-width="2"/></svg>