<svg width="40" height="40" fill="none" xmlns="http://www.w3.org/2000/svg"><g clip-path="url(#clip0)"><path d="M20 1.719C9.43 1.719.86 10.289.86 20.859c0 2.44.457 4.773 1.29 6.919l28.055 9.276c5.37-3.39 8.936-9.375 8.936-16.195 0-10.57-8.57-19.14-19.14-19.14z" fill="#1C2E7A"/><path d="M29.531 34.303H12.76v4.279A19.078 19.078 0 0020 40c3.786 0 7.315-1.1 10.286-2.997v-1.945a.757.757 0 00-.755-.755z" fill="#FF9100"/><path d="M28.2 34.472c-.881.402-1.476 1.145-1.476 1.992 0 .746.462 1.412 1.175 1.835l.301-.14v-3.687z" fill="#BEC8F7"/><path d="M27.9 38.3c-.713-.424-1.176-1.09-1.176-1.836 0-.986.807-1.832 1.933-2.161H6.377a19.165 19.165 0 006.514 4.332h14.22c.265-.106.529-.218.788-.336z" fill="#E9EFFF"/><path d="M12.79 34.303H6.377a19.19 19.19 0 005.328 3.808c-1.121-1.202-.584-3.359 1.085-3.808z" fill="#BEC8F7"/><path d="M29.53.501H4.992a2.886 2.886 0 00-2.877 2.877v24.31a19.158 19.158 0 004.425 6.779h22.992c.415 0 .755.34.755.755V20.297a8.61 8.61 0 01-1.748.178c-4.745 0-8.605-3.86-8.605-8.605 0-4.745 3.86-8.606 8.605-8.606a8.61 8.61 0 011.748.179V1.257A.757.757 0 0029.53.5z" fill="#FFB332"/><path d="M10.989 32.163V16.977a2.68 2.68 0 011.692-2.482V.501h-7.69a2.886 2.886 0 00-2.877 2.877v24.31a19.158 19.158 0 004.425 6.779h5.778a2.673 2.673 0 01-1.328-2.304z" fill="#FF9100"/><path d="M12.638 7.999v3.87h7.296c0-1.39.332-2.706.921-3.87h-8.217z" fill="#FFDD40"/><path d="M7.439.501H5.225v32.526c.414.502.853.982 1.315 1.44h.899V.5z" fill="#FFB332"/><path d="M12.347 0H10.31a.512.512 0 00-.512.512v13.862c0 .29.35.434.555.23l.543-.543c.24-.24.628-.24.867 0l.543.543c.205.204.555.06.555-.23V.512A.512.512 0 0012.347 0z" fill="#FF4155"/><path d="M11.328 9.554a1.632 1.632 0 01-1.531-1.072v5.892c0 .29.35.435.555.23l.543-.543c.24-.24.628-.24.867 0l.543.543c.205.205.555.06.555-.23V8.482a1.632 1.632 0 01-1.532 1.072z" fill="#E80054"/><path d="M34.73 18.066a8.76 8.76 0 10-12.39-12.39 8.76 8.76 0 0012.39 12.39z" fill="#4FABF7"/><path d="M33.098 18.392c-1.091-.068-1.246-.99-1.268-1.254a.356.356 0 00-.043-.142L25.96 6.382a.343.343 0 00-.117-.127c-.726-.452-.538-1.282-.372-1.718a.355.355 0 00-.128-.413.615.615 0 01-.23-.318 8.762 8.762 0 00-4.16 12.445 8.762 8.762 0 0012.617 2.794.723.723 0 01-.124-.338.365.365 0 00-.347-.314z" fill="#1E9EF4"/><path d="M22.184 17.904c.148-.046.294-.108.434-.189l1.458-.842-2.092-3.623-1.458.842c-.142.081-.27.178-.384.285a8.789 8.789 0 002.042 3.527z" fill="#2A428C"/><path d="M21.235 16.535a.57.57 0 01.247-.681l.008-.005.706-.407a.868.868 0 011.186.317l.656 1.136.038-.022-2.092-3.624-1.458.842a2.04 2.04 0 00-.384.286 8.785 8.785 0 001.245 2.554 8.733 8.733 0 01-.152-.396z" fill="#1C2E7A"/><path d="M31.193 12.897a.713.713 0 01-.128-1c.755-.975-.054-2.378-1.277-2.212a.713.713 0 01-.192-1.412c2.484-.338 4.132 2.513 2.596 4.497a.713.713 0 01-1 .127z" fill="#73C3F9"/><path d="M33.31 13.907a.713.713 0 01-.241-.979c1.475-2.44-.32-5.55-3.172-5.493a.713.713 0 11-.029-1.425c3.973-.08 6.476 4.255 4.42 7.656a.713.713 0 01-.978.24z" fill="#73C3F9"/><path d="M33.213 19.965c-4.464 2.577-10.192 1.042-12.77-3.421-2.576-4.464-1.041-10.193 3.422-12.77 4.464-2.577 10.192-1.042 12.77 3.422 2.577 4.463 1.042 10.192-3.422 12.77zM24.451 4.79c-3.904 2.254-5.246 7.264-2.992 11.169 2.254 3.904 7.264 5.246 11.168 2.992 3.904-2.254 5.247-7.264 2.993-11.168-2.254-3.905-7.264-5.247-11.169-2.993z" fill="#73C3F9"/><path d="M33.445 18.707a.343.343 0 00-.11-.215 8.323 8.323 0 01-.708.458c-3.904 2.254-8.914.912-11.168-2.992-2.254-3.905-.912-8.915 2.992-11.169a8.21 8.21 0 011.019-.497.369.369 0 00-.128-.17c-.296-.216-.287-.553-.237-.78a.356.356 0 00-.003-.165c-.42.166-.834.365-1.237.597-4.463 2.577-5.998 8.306-3.421 12.77 2.577 4.463 8.305 5.998 12.77 3.421a9.39 9.39 0 00.88-.578.384.384 0 00-.12-.064c-.389-.125-.504-.397-.53-.616z" fill="#4FABF7"/><path d="M23.188 12.057l-1.255.724a.349.349 0 00-.128.476l2.176 3.768c.096.166.31.224.476.127l1.255-.724a.349.349 0 00.127-.477l-2.175-3.767a.349.349 0 00-.476-.127z" fill="#3C58A0"/><path d="M23.575 15.025l.673-.389a.773.773 0 01.868.065l-1.453-2.517a.349.349 0 00-.476-.127l-1.255.724a.349.349 0 00-.127.476l1.384 2.398a.773.773 0 01.386-.63z" fill="#2A428C"/><path d="M25.814 6.655l-2.232 4.588a.917.917 0 00-.012.937l2.186 3.787c.168.29.482.466.817.457l5.13.43-5.889-10.199z" fill="#D3DCFB"/><path d="M25.131 14.02l.85-1.707a1.933 1.933 0 012.6-.866l-2.767-4.792-2.232 4.588a.917.917 0 00-.012.937c.45.777.94 1.627 1.418 2.456a.978.978 0 01.143-.617z" fill="#BEC8F7"/><path d="M31.826 17.069a.713.713 0 01-.973-.261L25.375 7.32a.713.713 0 111.234-.713l5.478 9.488a.714.714 0 01-.26.974z" fill="#E9EFFF"/><path d="M28.053 10.53a.828.828 0 01.819-.004l-2.263-3.919a.713.713 0 10-1.234.713l2.264 3.921a.828.828 0 01.414-.71z" fill="#D3DCFB"/></g><defs><clipPath id="clip0"><path fill="#fff" d="M0 0h40v40H0z"/></clipPath></defs></svg>