<svg width="40" height="40" fill="none" xmlns="http://www.w3.org/2000/svg"><path d="M9.364 36.774a19.029 19.029 0 007.4 2.952h6.473a19.029 19.029 0 007.4-2.952l6.56-7.503a19.06 19.06 0 001.944-8.412c0-10.571-8.57-19.14-19.14-19.14C9.428 1.718.858 10.287.858 20.858c0 3.018.7 5.873 1.944 8.412l6.56 7.503z" fill="#FF4155"/><path d="M4.723 32.39h30.555a19.138 19.138 0 002.005-3.295V14.233a2.398 2.398 0 00-2.395-2.395H5.113a2.398 2.398 0 00-2.395 2.395v14.862a19.149 19.149 0 002.005 3.296z" fill="#167CC1"/><path d="M9.913 22.114c-.713-1.68-.176-3.364.18-4.176a.916.916 0 00-.088-.897c-.829-1.172-.485-2.53-.218-3.215a.899.899 0 00-.038-.76c-.206-.373-.139-.724-.023-.98a.995.995 0 00.074-.248H5.113a2.398 2.398 0 00-2.395 2.395v14.862a19.135 19.135 0 002.005 3.295h6.831a.952.952 0 00-.257-.433c-2.883-2.78-.445-7.631-1.384-9.843z" fill="#0E62A8"/><path d="M4.26 31.752c.15.216.304.43.462.639h30.556c.158-.21.311-.423.461-.638v-3.064c-1.719-.041-3.608-.972-5.82-3.184-4.7-4.7-8.576 4.469-16.409-5.072-3.648-4.443-7.676-3.664-9.25-3.103v14.422z" fill="#9BD8F9"/><path d="M9.914 22.114c-.713-1.679-.176-3.364.18-4.176a.927.927 0 00.07-.259 7.6 7.6 0 00-5.902-.35v14.423c.15.216.303.43.461.639h6.832a.951.951 0 00-.257-.433c-2.883-2.781-.445-7.632-1.384-9.844z" fill="#73C3F9"/><path d="M34.888 13.381H5.114a.863.863 0 00-.852.852v3.237c1.573-.56 5.601-1.34 9.249 3.104 7.833 9.54 11.71.371 16.41 5.071 2.211 2.212 4.1 3.143 5.82 3.184V14.233a.864.864 0 00-.853-.852z" fill="#E9EFFF"/><path d="M4.262 14.233v3.237a7.6 7.6 0 015.877.338.913.913 0 00-.133-.767c-.83-1.172-.485-2.53-.218-3.215a.942.942 0 00.06-.445H5.114a.864.864 0 00-.852.852z" fill="#9BD8F9"/><path d="M20 40c1.254 0 2.479-.122 3.665-.352v-.006l-.39-2.903h-6.55l-.39 2.903v.006c1.186.23 2.411.352 3.665.352z" fill="#D3DCFB"/><path d="M19.086 39.807a1.574 1.574 0 011.568-1.438h2.84l-.219-1.63h-6.55l-.39 2.903v.006c.892.173 1.805.284 2.736.33l.015-.17z" fill="#BEC8F7"/><path d="M4.618 32.25a19.244 19.244 0 004.907 4.63h20.952a19.244 19.244 0 004.907-4.63H4.618z" fill="#E9EFFF"/><path d="M9.525 36.88h2.117a.917.917 0 00-.019-.947c-.677-1.08-.384-2.267-.102-2.956a.915.915 0 00-.017-.727H4.618a19.246 19.246 0 004.907 4.63z" fill="#D3DCFB"/><path d="M20.082 3.959c-4.393-.044-8.021 3.538-8.03 7.931a7.945 7.945 0 004.064 6.953 2.319 2.319 0 011.178 2.024v.754c0 .71.575 1.286 1.286 1.286h2.84c.71 0 1.286-.576 1.286-1.286v-.754a2.33 2.33 0 011.187-2.03 7.948 7.948 0 00-3.811-14.879z" fill="#FFDD40"/><path d="M19.414 18.176c-1.242-1.458-2.041-3.731-2.038-6.286.006-3.82 1.831-7.027 4.228-7.77a7.973 7.973 0 00-1.522-.161c-4.393-.044-8.021 3.538-8.03 7.931a7.945 7.945 0 004.064 6.953 2.319 2.319 0 011.178 2.024v.754c0 .71.575 1.286 1.286 1.286h.834v-4.731z" fill="#FFB332"/><path d="M20.97 27.244h-1.94c-.068 0-.134-.007-.199-.018v.485a1.168 1.168 0 002.337 0v-.485a1.177 1.177 0 01-.2.018z" fill="#4FABF7"/><path d="M20.97 25.06h-1.938a1.168 1.168 0 100 2.337h1.938a1.168 1.168 0 000-2.336z" fill="#2A428C"/><path d="M20 26.23c0-.613.47-1.114 1.07-1.164a1.171 1.171 0 00-.1-.005h-1.938a1.168 1.168 0 100 2.336h1.938c.033 0 .067-.002.1-.005A1.168 1.168 0 0120 26.23z" fill="#1C2E7A"/><path d="M19.032 23.964a.586.586 0 01-.586-.586v-5.191a.95.95 0 00-.378-.757 2.128 2.128 0 01-.847-1.695v-3.064a.586.586 0 111.172 0v3.064c0 .297.141.58.378.757a2.13 2.13 0 01.847 1.695v5.191a.586.586 0 01-.586.586zm1.936 0a.586.586 0 01-.586-.586v-5.191c0-.664.317-1.297.847-1.695a.95.95 0 00.379-.757v-3.064a.586.586 0 111.171 0v3.064c0 .663-.316 1.297-.847 1.695a.95.95 0 00-.378.757v5.191a.586.586 0 01-.586.586z" fill="#FF9100"/><path d="M22.624 13.947h-5.247a.586.586 0 110-1.172h5.247a.586.586 0 110 1.171z" fill="#FFB332"/><path d="M10.38 12.492h-1.7a.586.586 0 110-1.171h1.7a.586.586 0 110 1.171zm20.94 0h-1.7a.586.586 0 110-1.171h1.7a.586.586 0 110 1.171z" fill="#FFDD40"/><path d="M9.785 16.138a.586.586 0 01.317-.766l.786-.325a.586.586 0 11.448 1.082l-.786.326a.586.586 0 01-.765-.317zM28.346 8.45a.586.586 0 01.318-.766l.74-.307a.586.586 0 11.448 1.083l-.74.307a.586.586 0 01-.765-.318zm-4.902-4.903a.586.586 0 01-.317-.766l.306-.74a.586.586 0 111.083.449l-.307.74a.586.586 0 01-.765.317zm-7.698-.317l-.307-.74a.586.586 0 011.083-.449l.307.74a.586.586 0 01-1.083.449zm13.658 13.225l-.785-.325a.586.586 0 01.448-1.083l.786.325a.586.586 0 11-.449 1.083zM10.842 8.767l-.74-.307a.586.586 0 11.448-1.083l.74.307a.586.586 0 11-.448 1.083z" fill="#FFB332"/><path d="M11.58 20.326a.586.586 0 010-.829l1.204-1.202a.586.586 0 01.828.828l-1.203 1.203a.586.586 0 01-.828 0zM26.388 5.519a.586.586 0 010-.829l1.203-1.203a.586.586 0 11.829.83l-1.203 1.202a.586.586 0 01-.829 0zM20 2.873a.586.586 0 01-.586-.586V.586a.586.586 0 111.172 0v1.7a.586.586 0 01-.586.587zm7.591 17.453l-1.203-1.203a.586.586 0 01.83-.828l1.202 1.202a.586.586 0 11-.829.829zM12.784 5.519l-1.202-1.203a.586.586 0 11.829-.829l1.202 1.203a.586.586 0 01-.829.829z" fill="#FFDD40"/><path d="M21 34.816a1.032 1.032 0 10-2.009-.475 1.032 1.032 0 002.01.475z" fill="#BEC8F7"/><path d="M21.538 22.8h-3.076a1.168 1.168 0 000 2.337h3.076a1.168 1.168 0 100-2.337z" fill="#3C58A0"/><path d="M20 23.969a1.17 1.17 0 011.169-1.169h-2.707a1.168 1.168 0 000 2.337h2.707A1.168 1.168 0 0120 23.97z" fill="#2A428C"/><path d="M24.635 8.179a1.315 1.315 0 10-2.56-.605 1.315 1.315 0 002.56.605zm-3.13 1.985a.706.706 0 10-.54-1.305.706.706 0 00.54 1.305z" fill="#FCF2C8"/></svg>