<svg width="20" height="20" fill="none" xmlns="http://www.w3.org/2000/svg"><path d="M2.533 15.6l.447.224.138-.276-.185-.248-.4.3zm1.866 1.867l.3-.4-.247-.186-.276.139.223.447zM.667 19.333l-.448-.223a.5.5 0 00.671.67l-.223-.447zM6 6l-.278-.416A.5.5 0 005.5 6H6zm8 8v.5a.5.5 0 00.416-.223L14 14zM8.339 6.7l.493-.081-.493.082zm.186 1.116l-.493.083.493-.083zm-.576 1.329l.278.416-.278-.416zm5.35 2.516l.082-.493-.082.493zm-1.115-.186l-.083.493.083-.493zm-1.329.576l-.416-.278.416.278zM.167 10c0 2.213.731 4.256 1.966 5.9l.8-.6A8.792 8.792 0 011.167 10h-1zM10 .166C4.569.167.167 4.569.167 10h1A8.833 8.833 0 0110 1.167v-1zM19.833 10c0-5.43-4.402-9.833-9.833-9.833v1A8.833 8.833 0 0118.833 10h1zM10 19.833c5.43 0 9.833-4.402 9.833-9.833h-1A8.833 8.833 0 0110 18.833v1zm-5.901-1.966a9.792 9.792 0 005.9 1.966v-1a8.792 8.792 0 01-5.3-1.766l-.6.8zM.89 19.78l3.733-1.867-.447-.894-3.733 1.866.447.895zm1.196-4.404L.219 19.11l.895.447 1.866-3.733-.894-.447zM5.5 6v1.333h1V6h-1zm7.166 8.5H14v-1h-1.334v1zM5.5 7.333a7.167 7.167 0 007.166 7.167v-1A6.167 6.167 0 016.5 7.333h-1zm.777-.917l.284-.19-.554-.831-.285.19.555.831zm1.569.367l.186 1.116.986-.165-.186-1.115-.986.164zm-.174 1.946l-1.283.855.555.832 1.283-.855-.555-.832zm.36-.83a.833.833 0 01-.36.83l.555.832c.6-.4.91-1.115.791-1.827l-.986.165zm-1.47-1.672a.833.833 0 011.284.556l.986-.164a1.833 1.833 0 00-2.825-1.224l.554.832zm7.854 8.05l.19-.284-.833-.555-.19.285.833.554zm-1.035-3.11l-1.115-.185-.165.986 1.116.186.164-.986zm-2.942.606l-.855 1.283.832.555.855-1.283-.832-.555zm1.827-.791a1.833 1.833 0 00-1.827.791l.832.555a.833.833 0 01.83-.36l.165-.986zm2.34 3.011a1.833 1.833 0 00-1.225-2.825l-.164.986c.596.1.892.781.556 1.284l.832.555z" fill="#000"/></svg>