<svg width="40" height="40" fill="none" xmlns="http://www.w3.org/2000/svg"><g clip-path="url(#clip0)"><path d="M6.718 34.64a19.102 19.102 0 008.992 4.877l9.397-.207a19.115 19.115 0 008.175-4.67l2.892-3.541a19.05 19.05 0 002.967-10.24c0-10.57-8.57-19.14-19.14-19.14-10.572 0-19.142 8.57-19.142 19.14A19.05 19.05 0 003.827 31.1l2.89 3.541z" fill="#FFDD40"/><path d="M6.718 34.64h26.565a19.227 19.227 0 002.891-3.541v-9.38a21.17 21.17 0 01-1.685-1.525c-5.67-5.671-10.348 5.393-19.8-6.12-4.187-5.1-8.79-4.497-10.862-3.844v20.868a19.229 19.229 0 002.891 3.542z" fill="#E9EFFF"/><path d="M8.251 30.052v-17.03c0-1.298.622-1.977.98-2.26a.385.385 0 00.115-.45c-.014-.033-.025-.064-.037-.096a9.19 9.19 0 00-5.483.014v20.869a19.231 19.231 0 002.892 3.541h4.377C8.08 33.482 8.25 30.052 8.25 30.052z" fill="#D3DCFB"/><path d="M14.688 14.402c9.452 11.511 14.129.448 19.8 6.12.58.579 1.14 1.085 1.685 1.524V7.02H3.826v3.537C5.9 9.904 10.501 9.3 14.688 14.402z" fill="#9BD8F9"/><path d="M3.826 7.02v3.537a9.187 9.187 0 015.537.002.388.388 0 00-.017-.248c-.83-1.99.737-2.899 1.127-3.09a.384.384 0 00.145-.122l.056-.08H3.826z" fill="#73C3F9"/><path d="M33.324 0H6.676a2.858 2.858 0 00-2.85 2.85v1.876h32.347V2.85A2.858 2.858 0 0033.323 0z" fill="#2A428C"/><path d="M12.25 4.375c-.283-.438-.054-.83.08-1.002a.382.382 0 00.082-.237V1.592a.399.399 0 00-.092-.25c-.347-.43-.205-.868-.062-1.121A.38.38 0 0012.304 0H6.676a2.858 2.858 0 00-2.85 2.85v1.876h8.463a.39.39 0 00-.04-.351z" fill="#1C2E7A"/><path d="M8.239 2.51a.918.918 0 10-1.814-.294.918.918 0 001.814.294z" fill="#FF4155"/><path d="M10.791 2.363a.919.919 0 11-1.837 0 .919.919 0 011.837 0z" fill="#FFDD40"/><path d="M13.322 2.511a.919.919 0 10-1.813-.296.919.919 0 001.813.296zM25.058 14.45H14.943a2.836 2.836 0 100 5.672h10.115a2.836 2.836 0 100-5.671z" fill="#38C674"/><path d="M27.433 18.247H19.97a2.092 2.092 0 01-1.213-3.796h-3.814a2.836 2.836 0 100 5.671h10.115a2.837 2.837 0 002.676-1.897 2.107 2.107 0 01-.301.022z" fill="#24B55E"/><path d="M13.167 4.574a2.61 2.61 0 01-2.609 2.609h25.615v-2.61H13.167z" fill="#E9EFFF"/><path d="M3.826 4.574v2.609h6.896a2.61 2.61 0 002.609-2.61H3.826z" fill="#4FABF7"/><path d="M25.05 23.341h-.134c-.77 0-1.4.63-1.4 1.4v-.942c0-.748-.544-1.405-1.287-1.494a1.47 1.47 0 00-1.645 1.455v-.295c0-.748-.545-1.405-1.288-1.495a1.47 1.47 0 00-1.645 1.456v-4.663c0-.748-.545-1.405-1.288-1.494a1.47 1.47 0 00-1.645 1.455v7.783a.27.27 0 01-.28.27c-.395-.014-1.004-.028-1.495.529a3.985 3.985 0 00-.576 4.423c.686 1.328-.235-.132 3.005 4.053.219.275.338.616.338.968v2.767c1.379.316 2.815.483 4.29.483 1.768 0 3.48-.241 5.107-.69v-3.15c0-1.027 1.342-2.028 1.342-4.821V24.74c0-.77-.63-1.4-1.4-1.4z" fill="#F9BA8F"/><path d="M15.842 17.258h.684c.392 0 .713.321.713.714v1.283a.716.716 0 01-.713.714h-.684a.716.716 0 01-.714-.714v-1.283c0-.393.322-.714.714-.714z" fill="#E9EFFF"/><path d="M14.013 29.523c.39 0 .706-.316.706-.706v-2.31a.27.27 0 01-.28.27c-.302-.01-.728-.02-1.131.223v1.817c0 .39.316.706.705.706z" fill="#FCAD6D"/><path d="M25.564 2.976h-9.217a.613.613 0 110-1.226h9.217a.613.613 0 110 1.226zm7.487 0h-.798a.613.613 0 110-1.226h.798a.613.613 0 110 1.226zm-2.776 0h-.799a.613.613 0 110-1.226h.799a.613.613 0 110 1.226z" fill="#3C58A0"/><path d="M25.107 36.16c-5.044 4.049-9.397.59-9.397.59v2.767c1.38.316 2.815.483 4.29.483a19.16 19.16 0 005.107-.69v-3.15z" fill="#FCAD6D"/></g><defs><clipPath id="clip0"><path fill="#fff" d="M0 0h40v40H0z"/></clipPath></defs></svg>