<svg width="40" height="40" fill="none" xmlns="http://www.w3.org/2000/svg"><g clip-path="url(#clip0)"><path d="M33.852 33.152A19.074 19.074 0 0039.087 20c0-10.571-8.57-19.141-19.14-19.141C9.374.859.804 9.429.804 19.999c0 5.048 1.954 9.637 5.146 13.057l27.9.096z" fill="#1C2E7A"/><path d="M29.718 30.023a4.025 4.025 0 00-.28-.188c-.595-.376-.662-.54-.393-1.285.112-.31.227-.63.162-.97-.115-.599-.655-.842-1.177-1.077-.544-.245-.72-.337-.999-.68-.29-.356-.549-.57-1.155-.573-.8-.004-1.677.395-2.06-.105-.19-.246-.156-.6-.12-.976.114-1.206-.197-1.88-.273-2.922a5.213 5.213 0 011.279-3.77 14.165 14.165 0 00-4.734-.831c-1.24-.005-2.444.15-3.592.444a4.16 4.16 0 00-.348.783c-.27.85-.14 1.727.335 2.29.546.645 1.521.916 1.666 1.618.081.397-.138.786-.37 1.199-.235.416-.478.846-.446 1.34.042.638.505 1.068.953 1.484 1.075.997.76 1.134.958 1.668.23.622.959.84 1.193 1.316.5 1.02-1.424 3.176-4.607 3.502-.492.049-1.001.087-1.38.413-.39.334-.246.51-1.221.793-.242.07-.491.142-.72.27-1.09.61-1.098 2.434-.011 3.052.674.383 1.634.38 1.812.985.052.178.032.297.042.47 1.804.564 3.724.868 5.714.868 2.602 0 5.082-.52 7.343-1.46.02-.64-.252-1.244-.394-1.83-.133-.548-.116-1.298.37-1.607.3-.19.71-.175 1.114-.244.898-.153 1.675-.765 1.979-1.558.327-.855.052-1.895-.64-2.419z" fill="#73C3F9"/><path d="M21.031 35.668c-2.06-.783-2.222-2.313-2.033-3.393a1.381 1.381 0 00-.219-1.02c-.788.505-1.833.909-3.069 1.035-.492.049-1.001.087-1.38.413-.39.334-.246.51-1.221.793-.242.07-.491.142-.72.27-1.09.61-1.098 2.434-.011 3.052.674.383 1.634.38 1.812.985.052.178.032.297.042.47a19.252 19.252 0 008.611.65c-.01-1.206.108-2.525-1.812-3.255z" fill="#4FABF7"/><path d="M19.306 27.404c-.064-.174-.07-.363-.115-.543-.259-1.03-1.715-1.495-1.784-2.553-.06-.914.997-1.67.812-2.566-.165-.805-1.177-1.077-1.707-1.705-.478-.565-.522-1.4-.298-2.105a4.2 4.2 0 01.423-.906c-6.238 1.472-10.893 7.06-10.921 13.752-.003.748.053 1.482.161 2.2a19.144 19.144 0 008.557 5.356l-.002-.015c-.019-.191-.002-.388-.056-.572-.215-.73-1.24-.723-1.902-1.1-.955-.541-.949-2.175.01-2.71.502-.281 1.153-.282 1.579-.669.141-.129.248-.293.393-.418.341-.292.827-.32 1.273-.366 1.682-.172 3.391-.85 4.41-2.2.344-.454.603-1.07.352-1.582-.26-.532-.98-.742-1.185-1.298z" fill="#4FABF7"/><path d="M18.113 30.743c-4.535-1.605-1.113-6.537-3.718-7.94-1.951-1.05-1.813-3.112-1.545-4.279-4.244 2.438-7.112 7.007-7.134 12.254a14.28 14.28 0 00.161 2.2 19.142 19.142 0 008.557 5.356l-.002-.015c-.019-.19-.002-.387-.056-.571-.215-.73-1.24-.724-1.902-1.1-.955-.542-.949-2.176.01-2.711.502-.281 1.153-.281 1.579-.668.141-.13.248-.293.393-.418.341-.293.827-.321 1.273-.367 1.108-.113 2.227-.448 3.154-1.048a1.348 1.348 0 00-.77-.693z" fill="#1E9EF4"/><path d="M24.506 17.407c-.897 1.057-1.378 2.469-1.277 3.854.065.892.354 1.769.293 2.66-.032.46-.142.977.139 1.343.63.82 2.12-.238 2.942.391.18.137.297.34.458.498.599.593 1.796.638 1.955 1.464.119.62-.508 1.257-.259 1.837.149.346.543.498.843.724.646.49.866 1.437.576 2.194-.29.757-1.03 1.3-1.829 1.436-.403.069-.84.051-1.186.27-.564.36-.613 1.17-.455 1.82.15.62.432 1.233.384 1.864a19.174 19.174 0 006.835-4.688c.112-.71.172-1.436.175-2.176.026-6.25-3.991-11.574-9.595-13.49z" fill="#4FABF7"/><path d="M31.48 25.108a2.09 2.09 0 10-4.064-.975 2.09 2.09 0 004.064.975z" fill="#FFDD40"/><path d="M30.16 26.591c-1.104-.503-.436-1.447-.436-1.447l-.36-.99c-1.035-.21-1.014-.97-.934-1.351a2.089 2.089 0 001.03 3.905c.245.001.48-.04.7-.117z" fill="#FFB332"/><path d="M28.942 24.873a.585.585 0 01.271-.782l3.28-1.59.018-4.254a.586.586 0 111.171.005l-.02 4.618a.585.585 0 01-.33.525l-3.608 1.75a.585.585 0 01-.782-.272z" fill="#E9EFFF"/><path d="M11.16 26.492a2.091 2.091 0 10-1.518-3.897 2.091 2.091 0 001.519 3.898z" fill="#49D88B"/><path d="M11.258 26.444c-1.03-.46-.515-1.432-.515-1.432l-.136-.672c-1.08-.664-.437-1.88-.437-1.88a2.09 2.09 0 101.088 3.984z" fill="#38C674"/><path d="M10.141 25.062l-3.594-1.78a.585.585 0 01-.325-.528l.02-4.618a.586.586 0 011.17.005l-.018 4.253 3.267 1.618a.586.586 0 01-.52 1.05z" fill="#E9EFFF"/><path d="M16.176 13.064l-.92-.004a.586.586 0 11.005-1.17l.92.003a.585.585 0 01-.005 1.171zm2.845.012l-.92-.004a.585.585 0 01.006-1.17l.919.003a.585.585 0 01-.005 1.171zm2.844.012l-.92-.004a.586.586 0 11.005-1.17l.92.003a.586.586 0 01-.005 1.171zm2.845.012l-.92-.004a.586.586 0 01.006-1.17l.919.003a.586.586 0 01-.005 1.171z" fill="#3C58A0"/><path d="M37.574 16.982a6.264 6.264 0 10-8.858-8.858 6.264 6.264 0 008.858 8.858z" fill="#FFC839"/><path d="M37.544 17.014a.652.652 0 01-.193-.47.169.169 0 00-.185-.16c-1.199.116-3.604-.455-4.188-.6a.17.17 0 01-.129-.166l.027-6.29a.174.174 0 00-.058-.13c-.665-.606-.435-1.204-.27-1.475a.172.172 0 00-.053-.23c-.187-.132-.163-.324-.118-.452a.17.17 0 00-.071-.203c-.218-.13-.304-.289-.32-.443a6.266 6.266 0 001.138 12.42 6.243 6.243 0 004.42-1.8z" fill="#FFB332"/><path d="M37.13 16.29l-.044-.007c-.412-.06-1.044.081-1.674-.289a4.241 4.241 0 01-.925.992 2.212 2.212 0 01-2.712-.012 4.242 4.242 0 01-.916-.998c-.613.355-1.214.218-1.64.27-.052.006-.058.006-.08.01l.003.003c-.286.05-.548.17-.77.34a6.249 6.249 0 004.751 2.216 6.25 6.25 0 004.771-2.176 1.763 1.763 0 00-.767-.348l.003-.001z" fill="#E9EFFF"/><path d="M31.775 16.974a4.242 4.242 0 01-.916-.998c-.613.355-1.214.218-1.64.27-.052.006-.058.006-.08.01l.003.003c-.286.05-.548.17-.77.34.403.476.876.89 1.403 1.228.275-.052.589-.1.948-.143.594-.07 1.045-.26 1.388-.494a2.198 2.198 0 01-.336-.216z" fill="#BEC8F7"/><path d="M30.786 16.016c.294.48.654.853.989 1.115a2.211 2.211 0 002.712.011 4.24 4.24 0 001-1.107 1.965 1.965 0 01-.517-.399h.001c-.287-.305-.359-.549-.569-.919a2.72 2.72 0 01-2.521-.01c-.224.387-.293.616-.577.913h.001c-.172.18-.346.307-.52.396z" fill="#FCAD6D"/><path d="M32.954 15.014a2.711 2.711 0 01-1.073-.307c-.224.387-.293.616-.577.913h.001c-.172.18-.346.307-.52.396.295.48.655.853.99 1.115.066.052.137.098.208.142.958-.578 1.154-1.52 1.154-1.52s-.08-.314-.183-.739z" fill="#FD995B"/><path d="M32.658 7.572c-1.543.204-1.693 1.077-1.695 1.398a.176.176 0 01-.098.158c-.804.387-.38 2.268-.38 2.268.081.006.201.076.264.106.016-.095.042-.19.077-.28.028-.07.062-.14.104-.206a.632.632 0 00.099-.386c-.027-.392-.047-1.129.472-1.36.44-.195.977-.078 1.32.037.222.075.463.076.686.003.344-.113.882-.225 1.32-.025.515.234.49.966.46 1.36a.638.638 0 00.095.39 1.327 1.327 0 01.177.488c.08-.038.23-.116.327-.102.013-.411.053-.854.053-.854.467-2.235-1.62-3.214-3.281-2.995z" fill="#A05838"/><path d="M32.82 9.307l.055.016a.174.174 0 00-.058-.124c-.664-.606-.434-1.204-.269-1.476a.162.162 0 00.015-.137c-1.453.227-1.598 1.07-1.6 1.384a.176.176 0 01-.098.158c-.804.387-.38 2.268-.38 2.268.081.006.201.076.264.106a1.375 1.375 0 01.181-.486.632.632 0 00.099-.386c-.027-.392-.047-1.129.472-1.36.44-.195.977-.078 1.32.037z" fill="#823C26"/><path d="M36.023 11.475c-.12-.11-.36-.056-.463.011.022.142.023.286.003.428l-.126.889c0 .071-.003.141-.007.21.297.091.446-.175.471-.358a1.36 1.36 0 01.054-.232c.08-.247.368-.67.068-.948zm-5.736-.024c.12-.11.36-.053.463.015a1.45 1.45 0 00-.006.428l.118.89c0 .07.002.141.006.21-.298.089-.445-.18-.47-.362a1.363 1.363 0 00-.05-.233c-.079-.248-.363-.674-.06-.948z" fill="#FD995B"/><path d="M35.524 11.211a1.187 1.187 0 00-.105-.213.638.638 0 01-.095-.39c.03-.393.019-1.162-.497-1.396-.437-.2-.976-.088-1.32.025a1.09 1.09 0 01-.686-.003c-.343-.115-.88-.232-1.32-.036-.518.23-.536 1.003-.509 1.395a.634.634 0 01-.098.386 1.18 1.18 0 00-.104.206 1.425 1.425 0 00-.083.708l.118.89a3.267 3.267 0 001.252 2.602 1.731 1.731 0 002.123.01 3.266 3.266 0 001.273-2.592l.126-.889c.033-.236.01-.479-.075-.703z" fill="#F9BA8F"/><path d="M33.324 15.39c-.398-.452-.865-1.322-.86-2.6l-.08-.89a2.023 2.023 0 01.058-.708c.019-.07.042-.14.072-.206a.862.862 0 00.068-.386c-.017-.369-.006-1.075.294-1.35l-.055-.016c-.343-.115-.88-.232-1.32-.036-.518.23-.536 1.003-.508 1.396a.633.633 0 01-.099.386 1.174 1.174 0 00-.104.205 1.42 1.42 0 00-.083.708l.118.89a3.266 3.266 0 001.252 2.603 1.731 1.731 0 001.604.281 1.14 1.14 0 01-.357-.276z" fill="#FCAD6D"/><path d="M33.122 19.4a6.858 6.858 0 01-6.821-6.879 6.858 6.858 0 016.879-6.82A6.858 6.858 0 0140 12.578a6.858 6.858 0 01-6.879 6.821zm.053-12.529a5.686 5.686 0 00-5.703 5.655 5.686 5.686 0 005.655 5.703 5.686 5.686 0 005.703-5.655 5.686 5.686 0 00-5.655-5.703z" fill="#FFE98D"/><path d="M38.16 17.188c-.684.027-.8-.39-.808-.644a.164.164 0 00-.056-.117 5.664 5.664 0 01-4.17 1.802 5.686 5.686 0 01-5.654-5.703 5.687 5.687 0 014.905-5.601.165.165 0 00-.07-.087c-.527-.317-.284-.793-.152-.988a.17.17 0 00.028-.081c-3.308.47-5.868 3.313-5.882 6.752a6.858 6.858 0 006.821 6.88c2 .008 3.805-.846 5.065-2.212-.009 0-.017-.002-.026-.001z" fill="#FFC839"/><path d="M11.277 16.868A6.264 6.264 0 102.42 8.009a6.264 6.264 0 008.858 8.859z" fill="#38C674"/><path d="M11.245 16.904a.652.652 0 01-.193-.47.169.169 0 00-.186-.162c-1.199.117-3.604-.454-4.188-.599a.17.17 0 01-.129-.166l.027-6.29a.174.174 0 00-.058-.13c-.665-.606-.435-1.204-.27-1.475a.172.172 0 00-.053-.23c-.187-.132-.163-.324-.118-.452a.17.17 0 00-.07-.203c-.219-.13-.305-.289-.322-.443a6.266 6.266 0 001.139 12.42 6.244 6.244 0 004.42-1.8z" fill="#24B55E"/><path d="M10.83 16.178l-.043-.006h-.002c-.411-.06-1.043.081-1.673-.29a4.24 4.24 0 01-.924.993 2.212 2.212 0 01-2.713-.012 4.24 4.24 0 01-.916-.999c-.613.356-1.214.218-1.64.27l-.08.01.004.004c-.287.05-.549.17-.77.34a6.25 6.25 0 004.75 2.216 6.249 6.249 0 004.771-2.176 1.763 1.763 0 00-.766-.348l.002-.002z" fill="#E9EFFF"/><path d="M5.475 16.863a4.24 4.24 0 01-.916-.999c-.613.356-1.214.218-1.64.27l-.08.01.004.004c-.287.05-.549.17-.77.34.403.476.876.89 1.402 1.228.275-.052.589-.101.948-.143.594-.07 1.046-.26 1.388-.494a2.198 2.198 0 01-.336-.216z" fill="#BEC8F7"/><path d="M4.486 15.905c.294.48.655.852.99 1.114a2.212 2.212 0 002.712.012c.337-.26.7-.629.999-1.107a1.965 1.965 0 01-.517-.399l.001-.001c-.287-.304-.359-.548-.568-.918a2.72 2.72 0 01-2.522-.01c-.224.386-.292.616-.577.913h.001c-.172.18-.346.306-.52.396z" fill="#FCAD6D"/><path d="M6.654 14.903a2.711 2.711 0 01-1.073-.307c-.224.386-.292.616-.577.912l.001.002a1.98 1.98 0 01-.52.395c.295.48.656.852.99 1.115.067.052.137.098.208.142a2.55 2.55 0 001.154-1.52s-.079-.314-.183-.74z" fill="#FD995B"/><path d="M6.358 7.46c-1.543.204-1.693 1.078-1.695 1.398 0 .068-.038.13-.098.159-.804.387-.38 2.268-.38 2.268.081.006.202.076.264.106a1.377 1.377 0 01.182-.486.633.633 0 00.098-.386c-.027-.392-.047-1.129.472-1.36.44-.195.977-.078 1.32.037.222.075.463.076.686.003.344-.113.882-.225 1.32-.025.515.234.491.966.461 1.36a.639.639 0 00.095.39c.043.068.077.141.105.213.033.089.057.181.072.275.08-.038.23-.116.326-.102.014-.411.054-.854.054-.854.466-2.235-1.621-3.214-3.282-2.995z" fill="#A05838"/><path d="M6.52 9.196l.055.016a.174.174 0 00-.057-.124c-.665-.606-.435-1.205-.269-1.476a.162.162 0 00.015-.137c-1.453.226-1.598 1.07-1.6 1.383 0 .068-.038.13-.099.159-.803.387-.379 2.268-.379 2.268.08.006.201.076.264.106a1.377 1.377 0 01.181-.486.633.633 0 00.098-.386c-.027-.392-.046-1.129.473-1.36.439-.195.976-.078 1.319.037z" fill="#823C26"/><path d="M9.724 11.364c-.12-.11-.36-.056-.463.011.022.141.023.286.002.428l-.125.888c0 .072-.003.142-.008.211.298.091.446-.175.472-.358a1.36 1.36 0 01.054-.233c.08-.247.367-.67.068-.947zm-5.737-.024c.12-.11.36-.053.463.015a1.452 1.452 0 00-.006.428l.118.889c0 .072.001.142.005.211-.298.089-.444-.18-.468-.363a1.364 1.364 0 00-.052-.232c-.078-.248-.362-.674-.06-.948z" fill="#FD995B"/><path d="M9.225 11.1a1.183 1.183 0 00-.105-.213.64.64 0 01-.095-.39c.03-.393.018-1.162-.497-1.396-.438-.2-.976-.088-1.32.025a1.09 1.09 0 01-.687-.003c-.342-.115-.88-.232-1.32-.036-.518.23-.535 1.003-.508 1.395a.633.633 0 01-.098.386 1.184 1.184 0 00-.104.206 1.43 1.43 0 00-.084.709l.119.889a3.266 3.266 0 001.251 2.602 1.73 1.73 0 002.123.01 3.266 3.266 0 001.274-2.592l.126-.889a1.42 1.42 0 00-.075-.702z" fill="#F9BA8F"/><path d="M7.025 15.28c-.399-.453-.866-1.324-.86-2.601l-.08-.89a2.022 2.022 0 01.058-.708c.019-.07.042-.14.072-.206a.863.863 0 00.068-.386c-.017-.37-.007-1.075.293-1.35l-.055-.016c-.342-.116-.88-.232-1.32-.037-.518.231-.535 1.004-.508 1.396a.633.633 0 01-.098.386 1.183 1.183 0 00-.104.206 1.425 1.425 0 00-.084.708l.119.89a3.266 3.266 0 001.251 2.602 1.73 1.73 0 001.604.282 1.14 1.14 0 01-.356-.277z" fill="#FCAD6D"/><path d="M6.822 19.29A6.858 6.858 0 010 12.41a6.858 6.858 0 016.88-6.82 6.858 6.858 0 016.82 6.878 6.858 6.858 0 01-6.878 6.821zm.053-12.53a5.686 5.686 0 00-5.704 5.655 5.685 5.685 0 005.656 5.703 5.685 5.685 0 005.703-5.655A5.685 5.685 0 006.875 6.76z" fill="#49D88B"/><path d="M11.86 17.077c-.684.027-.8-.39-.808-.644a.164.164 0 00-.056-.117 5.664 5.664 0 01-4.17 1.802 5.686 5.686 0 01-5.654-5.703 5.687 5.687 0 014.905-5.601.165.165 0 00-.07-.087c-.528-.317-.285-.793-.152-.988a.17.17 0 00.028-.081C2.574 6.128.015 8.972.001 12.41a6.858 6.858 0 006.82 6.88c2 .008 3.806-.846 5.065-2.212a.167.167 0 00-.025-.001z" fill="#38C674"/></g><defs><clipPath id="clip0"><path fill="#fff" d="M0 0h40v40H0z"/></clipPath></defs></svg>