<svg width="40" height="40" fill="none" xmlns="http://www.w3.org/2000/svg"><g clip-path="url(#clip0)"><path d="M34.832 32.958a19.061 19.061 0 004.309-12.099c0-10.571-8.57-19.14-19.14-19.14C9.428 1.718.858 10.287.858 20.858a19.06 19.06 0 004.31 12.099h29.663z" fill="#73C3F9"/><path d="M20 15.746c4.299 0 7.783-1.016 7.783-2.268 0-1.253-3.485-2.268-7.782-2.268-4.298 0-7.782 1.015-7.782 2.268 0 1.252 3.484 2.268 7.782 2.268z" fill="#1C2E7A"/><path d="M20 11.21c-.13 0-.26 0-.39.003l-.2.236s4.654 1.942.341 4.295l.25.002c4.297 0 7.781-1.016 7.781-2.268 0-1.253-3.484-2.268-7.782-2.268z" fill="#142766"/><path d="M14.528 11.97c-.637.19-1.236.41-1.617.654.063 1.136.28 2.153.28 2.153.205.014.495.097.655.174.04-.244.103-.56.194-.792.069-.177.155-.356.263-.525.187-.293.272-.64.247-.986a8.264 8.264 0 01-.022-.677zm10.944 0c.002.248-.007.477-.021.67a1.63 1.63 0 00.246.994c.111.175.2.36.27.542.087.228.149.537.187.775.202-.098.565-.204.812-.17.025-.869.096-1.868.12-2.159-.38-.243-.979-.463-1.614-.651z" fill="#A05838"/><path d="M27.334 14.843c-.306-.28-.916-.138-1.18.034.058.36.06.728.011 1.091l-.311 2.267c0 .183-.006.362-.017.538.76.229 1.136-.452 1.2-.92.027-.201.072-.4.134-.593.202-.63.93-1.714.163-2.417z" fill="#FCAD6D"/><path d="M26.758 16.752c-.249 0-.48-.074-.673-.2l-.231 1.683c0 .183-.006.362-.017.538.76.23 1.136-.452 1.2-.92.027-.201.072-.4.134-.593.066-.206.188-.46.296-.734-.2.142-.445.226-.71.226z" fill="#FD995B"/><path d="M12.666 14.843c.307-.28.917-.138 1.18.034-.057.36-.06.728-.01 1.091l.31 2.267c0 .183.006.362.017.538-.76.229-1.136-.452-1.2-.92a3.497 3.497 0 00-.134-.593c-.202-.63-.93-1.714-.163-2.417z" fill="#FCAD6D"/><path d="M13.926 16.628a1.225 1.225 0 01-1.467-.304c.12.35.289.68.37.936.063.194.108.392.135.593.063.468.44 1.15 1.2.92a8.955 8.955 0 01-.017-.538l-.22-1.607z" fill="#FD995B"/><path d="M24.415 28.82l1.416-1.93c-.306-.09-.616-.171-.932-.244-.758-.758-.95-2.194-.985-3.2-.395.461-.81.847-1.207 1.154a4.415 4.415 0 01-5.416 0 8.369 8.369 0 01-1.206-1.153c-.035 1.005-.227 2.441-.985 3.199-.316.073-.626.154-.932.244l1.416 1.93h8.831z" fill="#FCAD6D"/><path d="M18.058 27.922a.485.485 0 00.333-.182c.53-.672.869-1.47 1.086-2.245a4.41 4.41 0 01-2.185-.895 8.374 8.374 0 01-1.207-1.153c-.035 1.005-.227 2.441-.985 3.199-.316.073-.626.154-.932.244l1.416 1.93h1.295c.416-.72.916-.872 1.179-.898z" fill="#FD995B"/><path d="M16.44 29.985l2.809 3.827a.932.932 0 001.502 0l2.808-3.826h-7.12z" fill="#BEC8F7"/><path d="M25.771 13.634a1.63 1.63 0 01-.246-.994 8.39 8.39 0 00.022-.67c-1.412-.417-3.375-.676-5.547-.676-2.17 0-4.134.259-5.546.677-.002.251.008.483.022.678.026.346-.06.692-.247.985-.107.17-.194.348-.263.526a3.626 3.626 0 00-.205 1.808l.312 2.267c0 3.26 1.74 5.475 3.22 6.625a4.42 4.42 0 005.415 0c1.48-1.15 3.22-3.365 3.22-6.625l.312-2.267a3.627 3.627 0 00-.199-1.791 3.015 3.015 0 00-.27-.543z" fill="#F9BA8F"/><path d="M21.188 24.806c-1.48-1.216-3.22-3.56-3.22-7.007l-.311-2.398a4.042 4.042 0 01.205-1.913c.069-.187.155-.377.263-.556.187-.31.272-.676.247-1.042a9.152 9.152 0 01-.022-.545c-1.507.095-2.852.317-3.896.626-.002.25.008.483.022.678.026.346-.06.692-.247.985-.107.17-.194.348-.263.525a3.626 3.626 0 00-.205 1.809l.312 2.267c0 3.26 1.74 5.475 3.22 6.625a4.415 4.415 0 004.68.46 4.367 4.367 0 01-.785-.514z" fill="#FCAD6D"/><path d="M34.958 32.802a5.681 5.681 0 00-1.305-1.562l-12.855 7.798a1.566 1.566 0 01-1.595 0L6.348 31.24c-.541.444-.968.98-1.305 1.562C8.55 37.189 13.947 40 20 40c6.054 0 11.45-2.811 14.958-7.198z" fill="#3C58A0"/><path d="M10.785 34.327a.478.478 0 00.15-.304L6.349 31.24c-.541.443-.968.98-1.305 1.562a19.246 19.246 0 004.78 4.269c.114-1.75.668-2.477.962-2.744z" fill="#1C2E7A"/><path d="M21.404 29.072a.717.717 0 01.04-.578H18.6a.717.717 0 01.039.578 4.74 4.74 0 01-.399.835l.849 1.143h1.822l.872-1.174a4.742 4.742 0 01-.38-.805z" fill="#E80054"/><path d="M20.912 31.05h-1.823l-.588 1.742.749 1.02a.932.932 0 001.502 0l.748-1.02-.588-1.743z" fill="#FF7186"/><path d="M19.425 33.972l.463-1.37a1 1 0 01.947-.68h.371l-.294-.873h-1.823l-.588 1.743.749 1.02c.06.082.131.15.208.205l-.033-.045z" fill="#FF4155"/><path d="M22.94 31.198l2.75-3.744c.038-.358.051-.59.051-.59l-.904-1.12a.61.61 0 00-.915-.038l-2.513 2.627a.716.716 0 00-.155.738c.206.57.69 1.56 1.687 2.127zm-5.868.017c1.017-.564 1.508-1.568 1.716-2.144a.716.716 0 00-.155-.739l-2.513-2.627a.61.61 0 00-.915.039l-.946 1.12s.015.235.058.598l2.755 3.753z" fill="#E9EFFF"/><path d="M18.059 27.922c.05-.005.1-.018.145-.038l-2.084-2.178a.61.61 0 00-.915.038l-.946 1.12s.015.235.058.598l1.9 2.589a.486.486 0 00.29-.317c.433-1.52 1.202-1.777 1.552-1.812z" fill="#D3DCFB"/><path d="M33.622 29.889a5.408 5.408 0 00-.787-.394l-.9-.334-11.2 7.736a1.292 1.292 0 01-1.468 0l-11.16-7.709-1.477.558a5.292 5.292 0 00-.255.145c-.568.346-.557 1.176.011 1.52l12.817 7.776a1.54 1.54 0 001.596 0l12.816-7.775a.892.892 0 00.007-1.523z" fill="#FFDD40"/><path d="M12.16 31.988l-4.054-2.8-1.477.558a5.326 5.326 0 00-.254.145c-.568.346-.558 1.176.01 1.52l4.52 2.742a.51.51 0 00.034-.207c-.029-.736.49-1.396 1.22-1.958z" fill="#FFB332"/><path d="M20.751 33.663a.932.932 0 01-1.502 0l-4.99-6.799-6.293 2.377 11.3 7.806a1.291 1.291 0 001.468 0l11.34-7.833-6.332-2.35-4.99 6.799z" fill="#FFB332"/><path d="M12.058 32.068c1.314-1.057 3.403-1.776 4.127-2.004a.49.49 0 00.268-.21l-2.194-2.99-6.293 2.377 4.092 2.827z" fill="#FF9100"/><path d="M31.672 5.077L21.023.222a2.468 2.468 0 00-2.047 0L8.326 5.077c-.987.45-.987 1.853 0 2.303l4.08 1.86V8.131c0-.5.801-1.032 2.144-1.423 3.007-.876 7.893-.876 10.9 0 1.342.391 2.143.923 2.143 1.423v1.11l4.08-1.86c.987-.45.987-1.854 0-2.304z" fill="#3C58A0"/><path d="M8.327 5.077c-.988.45-.988 1.853 0 2.303l4.08 1.86V8.131c0-.5.8-1.031 2.143-1.423 1.347-.392 3.072-.609 4.836-.65.321-.136.614-.195.614-.195-4.296-2.28-1.024-5.64-1.024-5.64L8.326 5.077z" fill="#2A428C"/><path d="M20 5.863c-4.297 0-7.781 1.015-7.781 2.268v5.347h.04c.4-1.143 3.713-2.035 7.742-2.035 4.028 0 7.341.892 7.741 2.035h.04V8.131c0-1.253-3.483-2.268-7.781-2.268z" fill="#2A428C"/><path d="M20 5.863c-4.297 0-7.781 1.015-7.781 2.268v5.347h.04c.38-1.087 3.394-1.946 7.152-2.028v-.001c-.867-.334-.85-1.22-.85-1.22V6.94c0-.79 1.44-1.078 1.44-1.078z" fill="#1C2E7A"/><path d="M24.64 16.491a.745.745 0 01-.745-.745v-2.915a.745.745 0 111.49 0v2.915a.745.745 0 01-.744.745z" fill="#FFDD40"/><path d="M24.64 12.085a.745.745 0 00-.745.746v2.203a.745.745 0 011.49 0V12.83a.745.745 0 00-.744-.746z" fill="#FFB332"/><path d="M24.64 11.016a.559.559 0 01-.558-.56V.63a.559.559 0 011.118 0v9.827a.56.56 0 01-.56.559z" fill="#FFDD40"/><path d="M26.102 11.705a1.46 1.46 0 11-2.922 0 1.46 1.46 0 012.922 0z" fill="#FFB332"/><path d="M24.933 11.864a.625.625 0 100-1.25.625.625 0 000 1.25z" fill="#FFDD40"/><path d="M30.546 13.165c-.293 3.884-.774 6.041-2.133 8.826a2.298 2.298 0 00.907 2.985c2.171 1.278 5.856 2.99 8.807 2.045a19.112 19.112 0 001.014-6.162c0-3.579-.983-6.927-2.693-9.793-2.083-.621-5.654-1.192-5.902 2.1zm-18.918 8.826c-1.36-2.784-1.841-4.941-2.134-8.825-.25-3.317-3.875-2.712-5.95-2.084A19.05 19.05 0 00.858 20.86c0 2.15.355 4.218 1.01 6.147 2.957.977 6.669-.746 8.851-2.03a2.298 2.298 0 00.908-2.986z" fill="#9BD8F9"/></g><defs><clipPath id="clip0"><path fill="#fff" d="M0 0h40v40H0z"/></clipPath></defs></svg>