<svg width="40" height="40" fill="none" xmlns="http://www.w3.org/2000/svg"><path d="M19.14 1.718c-6.158 0-11.637 2.91-15.138 7.429L7.679 36.19A19.055 19.055 0 0019.141 40c10.571 0 19.14-8.57 19.14-19.14 0-10.572-8.569-19.142-19.14-19.142z" fill="#1C2E7A"/><path d="M30.097 18.03a10.07 10.07 0 01-.6.448v14.614a.716.716 0 01-.716.715H5.045a19.249 19.249 0 002.72 2.447h3.184c.438 0 .843.24 1.047.627a2.066 2.066 0 003.658 0 1.18 1.18 0 011.047-.627h12.538a2.622 2.622 0 002.614-2.614V19.634l-1.672-1.672-.084.068z" fill="#FFB332"/><path d="M7.766 36.254h3.183c.438 0 .843.24 1.047.627a2.067 2.067 0 003.658 0c-2.627-.4-1.829-3.002-1.829-3.002l-1.044-.071H5.045a19.251 19.251 0 002.72 2.446z" fill="#FF9100"/><path d="M28.777 31.424a18.443 18.443 0 00-14.952.375v2.08h14.956a.84.84 0 00.841-.84v-2.183a.613.613 0 01-.845.568z" fill="#D3DCFB"/><path d="M2.511 30.342a19.203 19.203 0 002.601 3.537h8.713v-2.08a18.441 18.441 0 00-11.314-1.457z" fill="#BEC8F7"/><path d="M6.94 30.244l-.15-.201a18.45 18.45 0 00-4.279.299 19.2 19.2 0 002.601 3.537h3.573c-2.89-1.123-1.745-3.635-1.745-3.635z" fill="#A8B7EF"/><path d="M13.825 11.755v20.237a18.443 18.443 0 0114.953-.375.612.612 0 00.844-.567V18.39c-6.056 4.329-14.65.76-15.797-6.635z" fill="#E9EFFF"/><path d="M4.068 9.06A19.059 19.059 0 000 20.86c0 3.522.953 6.821 2.612 9.656a18.443 18.443 0 0111.213 1.477v-21.25A18.44 18.44 0 004.068 9.06z" fill="#D3DCFB"/><path d="M5.502 27.089V13.172a4.216 4.216 0 013.004-4.024 18.46 18.46 0 00-4.438-.088A19.059 19.059 0 000 20.86c0 3.522.953 6.821 2.612 9.656a18.45 18.45 0 014.327-.272 4.193 4.193 0 01-1.437-3.155z" fill="#BEC8F7"/><path d="M11.75 15.126a18.92 18.92 0 00-10.794-.252c-.148.45-.28.908-.394 1.373a17.733 17.733 0 0110.819.028.603.603 0 10.369-1.149zm0 2.438a18.932 18.932 0 00-11.457-.06c-.07.4-.127.804-.173 1.212a.601.601 0 00.353-.005 17.735 17.735 0 0110.907 0 .603.603 0 10.37-1.147zm0 2.436A18.933 18.933 0 00.103 20a.598.598 0 00-.085.036c-.012.273-.019.547-.019.823l.003.246a.6.6 0 00.47.043 17.735 17.735 0 0110.907.001.603.603 0 10.37-1.148z" fill="#A8B7EF"/><path d="M15.511 20.76a.603.603 0 01.39-.76c.47-.15.951-.284 1.432-.398a.603.603 0 01.278 1.173c-.45.107-.901.233-1.341.374a.603.603 0 01-.758-.39z" fill="#BEC8F7"/><path d="M11.75 22.438a18.934 18.934 0 00-11.646 0l-.037.014c.032.388.076.774.13 1.155.09.014.184.008.276-.021a17.737 17.737 0 0110.908 0 .603.603 0 10.369-1.148z" fill="#A8B7EF"/><path d="M15.51 23.197a.603.603 0 01.39-.759 18.934 18.934 0 0111.645 0 .603.603 0 01-.368 1.148 17.735 17.735 0 00-10.908 0 .603.603 0 01-.758-.39z" fill="#BEC8F7"/><path d="M11.749 24.876a18.927 18.927 0 00-11.346-.094c.082.396.178.788.284 1.174a17.731 17.731 0 0110.693.068.603.603 0 10.369-1.148z" fill="#A8B7EF"/><path d="M15.51 25.634a.603.603 0 01.39-.758 18.934 18.934 0 0111.645-.001.603.603 0 01-.368 1.148 17.735 17.735 0 00-10.908 0 .603.603 0 01-.758-.389z" fill="#BEC8F7"/><path d="M11.75 27.313a18.923 18.923 0 00-10.729-.27c.131.384.275.762.429 1.134a17.725 17.725 0 019.93.284.603.603 0 10.37-1.148z" fill="#A8B7EF"/><path d="M15.51 28.071a.603.603 0 01.39-.758 18.936 18.936 0 0111.645 0 .603.603 0 01-.368 1.147 17.736 17.736 0 00-10.908.001.603.603 0 01-.758-.39z" fill="#BEC8F7"/><path d="M23.775 20.382c5.628 0 10.19-4.563 10.19-10.191C33.966 4.563 29.404 0 23.776 0S13.585 4.563 13.585 10.19c0 5.63 4.563 10.192 10.19 10.192z" fill="#9BD8F9"/><path d="M30.734 17.416c-.605-.15-.796-.63-.857-.92a.313.313 0 00-.247-.248c-.448-.08-.582-.4-.62-.62a.318.318 0 00-.258-.256c-3.945-.723-3.651-4.102-3.573-4.67a.318.318 0 00-.02-.164l-.358-.882a.319.319 0 00-.227-.192c-2.484-.541-2.19-2.678-2.11-3.082a.315.315 0 00-.005-.139l-.248-.984a.316.316 0 00-.23-.232c-.907-.218-.937-1.03-.887-1.454a.323.323 0 00-.199-.333c-.396-.17-.421-.507-.377-.75a.317.317 0 00-.208-.354c-.603-.213-.633-.76-.595-1.078a.31.31 0 00-.043-.198 10.166 10.166 0 00-3.103 2.125c-3.98 3.98-3.98 10.432 0 14.412 3.946 3.946 10.324 3.979 14.31.098a.326.326 0 00-.145-.08z" fill="#73C3F9"/><path d="M23.774 18.179a7.988 7.988 0 100-15.976 7.988 7.988 0 000 15.976z" fill="#4FABF7"/><path d="M29.01 15.628a.318.318 0 00-.258-.256c-3.945-.723-3.651-4.102-3.573-4.67a.318.318 0 00-.02-.164l-.358-.882a.319.319 0 00-.227-.192c-2.484-.541-2.19-2.677-2.11-3.082a.315.315 0 00-.005-.139l-.248-.984a.316.316 0 00-.23-.232c-.907-.218-.937-1.03-.887-1.454a.323.323 0 00-.199-.333.605.605 0 01-.356-.354 7.988 7.988 0 108.673 13.156.77.77 0 01-.202-.414z" fill="#1E9EF4"/><path d="M17.7 16.266a8.586 8.586 0 010-12.15c3.35-3.35 8.8-3.35 12.15 0 3.349 3.35 3.349 8.8 0 12.15-3.35 3.349-8.8 3.35-12.15 0zm-1.31-6.075c0 6.563 7.986 9.843 12.607 5.222 2.879-2.88 2.879-7.565 0-10.444C24.383.356 16.39 3.615 16.39 10.191z" fill="#73C3F9"/><path d="M29.63 16.248c-.448-.079-.582-.4-.62-.62a.308.308 0 00-.077-.154c-4.63 4.529-12.543 1.25-12.543-5.283 0-3.319 2.037-5.792 4.647-6.836a.337.337 0 00-.142-.115c-.396-.17-.421-.507-.377-.75a.312.312 0 00-.048-.228 8.586 8.586 0 00-2.77 14.004c3.329 3.328 8.73 3.348 12.085.062a.294.294 0 00-.155-.08z" fill="#4FABF7"/><path d="M32.674 19.09a1.64 1.64 0 011.057-.477l-2.059-2.06a1.085 1.085 0 00-1.535 1.536l2.06 2.059a1.64 1.64 0 01.477-1.057zm-8.289-4.058a.61.61 0 10-1.22 0 .61.61 0 001.22 0zm-.61-1.399a.603.603 0 01-.603-.603v-2.68c0-.333.27-.603.603-.603.542 0 1.047-.217 1.421-.611.374-.394.565-.91.537-1.455a1.96 1.96 0 00-3.918.105.603.603 0 11-1.207 0A3.164 3.164 0 0123.84 4.62a3.175 3.175 0 013.098 2.999 3.141 3.141 0 01-.866 2.347 3.137 3.137 0 01-1.693.93v2.134c0 .333-.27.603-.603.603z" fill="#E9EFFF"/><path d="M32.56 18.977a1.648 1.648 0 000 2.33l4.626 4.626a1.648 1.648 0 002.331-2.33l-4.626-4.626a1.648 1.648 0 00-2.33 0z" fill="#FF4155"/><path d="M35.295 21.717a1.799 1.799 0 011.937-.4l-2.34-2.34a1.648 1.648 0 00-2.332 2.33l2.33 2.33a1.798 1.798 0 01.405-1.92z" fill="#E80054"/></svg>