<svg width="40" height="40" fill="none" xmlns="http://www.w3.org/2000/svg"><path d="M2.254 26.325C5.096 33.336 11.97 38.282 20 38.282s14.904-4.946 17.745-11.957H2.255z" fill="#1C2E7A"/><path d="M37.996 24.512H2.006a1.76 1.76 0 01-.393-.044c.198.683.432 1.351.7 2 .095.009.19.014.285.014h34.805c.096 0 .19-.005.284-.013.27-.65.503-1.318.7-2a1.801 1.801 0 01-.391.043z" fill="#E9EFFF"/><path d="M21.195 24.512H2.005c-.134 0-.265-.015-.392-.044.198.683.432 1.351.7 2 .095.009.19.014.285.014h18.597v-1.97z" fill="#BEC8F7"/><path d="M37.403 24.165c.6 0 1.09-.49 1.09-1.09v-8.886c-.034-.13-.07-.258-.107-.387C36.074 5.829 28.718 0 20 0S3.926 5.83 1.615 13.803c-.037.128-.073.257-.107.385v8.887c0 .601.489 1.09 1.09 1.09h34.805z" fill="#FF4155"/><path d="M21.253 23.965l.869-2.216a.844.844 0 00-.018-.661c-.377-.818-.222-1.486.013-1.939a.847.847 0 00-.268-1.076c-1.749-1.246-1.29-3.277-1.04-4.035a.845.845 0 00-.036-.619l-2.03-4.407a.873.873 0 00-.271-.33c-1.234-.927-.997-2.237-.704-3.006a.853.853 0 00-.293-.999c-1.73-1.247-1.352-2.943-.986-3.824a.865.865 0 00.041-.538C9.376 1.625 3.612 6.913 1.615 13.803a22.55 22.55 0 00-.107.385v8.887c0 .601.489 1.09 1.09 1.09h18.605a.855.855 0 01.05-.2z" fill="#E80054"/><path d="M37.834 12.176v10.899a.431.431 0 01-.431.43H2.598a.432.432 0 01-.431-.43V12.176a19.09 19.09 0 00-1.308 6.965c0 1.872.27 3.68.771 5.39.278.185.61.293.968.293h34.805c.357 0 .69-.108.967-.293.501-1.71.77-3.518.77-5.39a19.1 19.1 0 00-1.306-6.965z" fill="#FF7186"/><path d="M2.598 23.506a.432.432 0 01-.431-.431V12.176a19.09 19.09 0 00-1.308 6.965c0 1.872.27 3.68.771 5.39.278.185.61.293.968.293h18.597v-.549a.85.85 0 01.058-.31l.18-.46H2.598z" fill="#FF4155"/><path d="M20 18.997A7.108 7.108 0 1020 4.78a7.108 7.108 0 000 14.216z" fill="#E9EFFF"/><path d="M21.85 18.073c-1.75-1.246-1.292-3.277-1.04-4.035a.845.845 0 00-.037-.619l-2.03-4.407a.873.873 0 00-.27-.33c-1.234-.927-.998-2.237-.704-3.006a.864.864 0 00.024-.545A7.108 7.108 0 0022.2 18.649a.857.857 0 00-.352-.576z" fill="#D3DCFB"/><path d="M22.671 12.621l-3.471 2.22a.87.87 0 01-1.338-.733V9.669a.87.87 0 011.338-.732l3.471 2.22a.87.87 0 010 1.464z" fill="#FF4155"/><path d="M19.595 9.93v1.405a.87.87 0 001.338.732l1.581-1.011.157.1a.87.87 0 010 1.465l-3.471 2.22a.87.87 0 01-1.338-.733V9.669a.87.87 0 011.338-.732l.486.311a2.57 2.57 0 00-.09.681z" fill="#E80054"/><path d="M23.963 29.15l.003-.002-.044-.007v.001c-.41-.059-1.037.085-1.663-.28-.28.42-.608.75-.914.988a2.196 2.196 0 01-2.693 0 4.21 4.21 0 01-.914-.988c-.607.356-1.205.222-1.628.276-.05.006-.056.006-.079.01l.004.003c-.85.152-1.48.916-1.48 1.802v2.402c0 .357.29.647.647.647h9.593c.357 0 .646-.29.646-.647v-2.402c0-.886-.628-1.651-1.478-1.803z" fill="#73C3F9"/><path d="M16.558 31.98a1.55 1.55 0 011-1.44 4.43 4.43 0 001.151-.65c-.019-.013-.039-.026-.057-.04a4.21 4.21 0 01-.914-.988c-.607.356-1.205.222-1.628.276-.05.006-.056.006-.079.01l.004.003c-.85.152-1.48.916-1.48 1.802v2.402c0 .357.29.646.647.646h1.357v-2.02z" fill="#4FABF7"/><path d="M17.665 28.903c.294.475.654.843.987 1.102a2.196 2.196 0 002.693 0c.334-.26.694-.627.988-1.103a1.954 1.954 0 01-.515-.394l.001-.001c-.286-.301-.358-.543-.568-.91a2.701 2.701 0 01-2.504 0c-.221.386-.288.614-.569.91h.001c-.17.18-.343.306-.514.396z" fill="#FCAD6D"/><path d="M18.178 28.507h.001c-.17.18-.343.306-.514.396.281.454.622.81.943 1.066 1.206-.892 1.39-2.064 1.39-2.064-.427 0-.857-.1-1.251-.307-.221.385-.288.613-.569.909z" fill="#FD995B"/><path d="M19.489 20.51c-1.53.209-1.676 1.077-1.677 1.395a.175.175 0 01-.097.158c-.796.387-.367 2.254-.367 2.254.08.005.2.074.262.104a1.37 1.37 0 01.076-.28 1.17 1.17 0 01.102-.204.629.629 0 00.096-.383c-.028-.39-.05-1.12.463-1.352.436-.196.97-.083 1.31.03.222.074.461.074.683 0 .34-.113.874-.226 1.31-.03.512.23.491.958.463 1.348a.633.633 0 00.096.387 1.36 1.36 0 01.178.484c.078-.038.227-.116.323-.102.012-.408.05-.848.05-.848.453-2.222-1.623-3.185-3.271-2.96z" fill="#A05838"/><path d="M20.007 20.48a3.547 3.547 0 00-.518.03c-1.53.209-1.676 1.077-1.677 1.395a.175.175 0 01-.097.158c-.796.387-.367 2.254-.367 2.254.08.005.2.074.262.104a1.37 1.37 0 01.076-.28 1.17 1.17 0 01.102-.204.629.629 0 00.096-.384c-.028-.389-.05-1.12.463-1.351.436-.196.97-.083 1.31.03a.992.992 0 00.14.036 1.084 1.084 0 00-.04-.08c-.533-.966-.024-1.505.25-1.708z" fill="#823C26"/><path d="M22.846 24.372c-.12-.11-.357-.054-.46.013.023.14.024.283.005.425l-.121.882c0 .071-.003.141-.007.21.296.089.442-.176.467-.358.01-.079.028-.156.052-.231.079-.246.362-.667.064-.941zm-5.696 0c.12-.11.358-.054.46.013a1.44 1.44 0 00-.004.425l.121.882c0 .071.002.141.006.21-.295.089-.442-.176-.467-.358a1.345 1.345 0 00-.052-.231c-.078-.246-.362-.667-.063-.941z" fill="#FD995B"/><path d="M22.35 24.113a1.173 1.173 0 00-.105-.212.635.635 0 01-.096-.387c.029-.39.014-1.154-.499-1.384-.435-.196-.97-.083-1.31.03a1.081 1.081 0 01-.682 0c-.341-.113-.875-.226-1.31-.03-.515.23-.528.998-.5 1.388a.628.628 0 01-.096.383 1.169 1.169 0 00-.102.205 1.41 1.41 0 00-.08.704l.121.882c0 1.27.677 2.132 1.254 2.58a1.719 1.719 0 002.108 0 3.242 3.242 0 001.253-2.58l.121-.882a1.41 1.41 0 00-.077-.697z" fill="#F9BA8F"/><path d="M20.456 28.271a3.243 3.243 0 01-1.253-2.579l-.122-.882a1.41 1.41 0 01.08-.704 1.17 1.17 0 01.103-.205.628.628 0 00.096-.383c-.027-.362-.016-1.049.397-1.33a1.044 1.044 0 01-.1-.027c-.34-.114-.874-.227-1.31-.031-.514.231-.527.998-.499 1.388a.627.627 0 01-.096.383 1.172 1.172 0 00-.102.205 1.41 1.41 0 00-.08.704l.121.882c0 1.27.677 2.132 1.254 2.58a1.72 1.72 0 001.81.184 1.714 1.714 0 01-.299-.185z" fill="#FCAD6D"/><path d="M22.786 32.024v1.977h1.318s-.114-1.695-.847-2.222a.299.299 0 00-.47.245z" fill="#4FABF7"/><path d="M34.846 29.147l.003-.002-.043-.006h-.002c-.408-.058-1.035.085-1.662-.28-.28.42-.608.75-.914.989a2.195 2.195 0 01-2.693 0 4.21 4.21 0 01-.914-.988c-.607.355-1.205.221-1.628.275l-.079.01.004.004c-.85.151-1.48.916-1.48 1.801v2.402c0 .358.29.647.647.647h9.593c.357 0 .646-.29.646-.647V30.95c0-.885-.628-1.65-1.478-1.803z" fill="#73C3F9"/><path d="M27.442 31.978a1.55 1.55 0 011-1.44 4.425 4.425 0 001.15-.65c-.019-.013-.039-.026-.057-.04a4.211 4.211 0 01-.914-.988c-.607.355-1.205.221-1.628.275-.05.007-.056.006-.079.01l.004.004c-.85.151-1.48.916-1.48 1.801v2.402c0 .358.29.647.647.647h1.356v-2.021z" fill="#4FABF7"/><path d="M28.548 28.9c.294.476.654.844.987 1.102a2.195 2.195 0 002.694 0c.333-.259.693-.627.987-1.103a1.955 1.955 0 01-.514-.394c-.286-.302-.358-.543-.568-.91a2.7 2.7 0 01-2.504 0c-.22.385-.287.614-.568.91-.17.18-.342.306-.514.395z" fill="#FCAD6D"/><path d="M29.061 28.504l.001.001c-.17.18-.342.306-.514.395.281.455.622.81.943 1.066 1.207-.892 1.39-2.063 1.39-2.063-.427 0-.857-.101-1.251-.308-.22.385-.287.614-.569.91z" fill="#FD995B"/><path d="M30.372 20.508c-1.53.209-1.676 1.076-1.677 1.395a.175.175 0 01-.097.158c-.796.387-.367 2.254-.367 2.254.08.005.2.074.263.104a1.37 1.37 0 01.075-.28c.027-.068.06-.138.102-.204a.628.628 0 00.096-.383c-.028-.39-.05-1.121.463-1.352.436-.196.97-.083 1.31.03.222.074.462.074.683 0 .34-.113.875-.226 1.31-.03.513.23.492.958.463 1.348a.634.634 0 00.096.387c.043.068.078.14.105.211.034.089.058.18.073.273.079-.038.227-.116.323-.102.012-.409.05-.849.05-.849.453-2.221-1.623-3.184-3.27-2.96z" fill="#A05838"/><path d="M30.89 20.478a3.534 3.534 0 00-.518.03c-1.531.209-1.676 1.077-1.677 1.395a.175.175 0 01-.097.158c-.796.387-.367 2.254-.367 2.254.08.005.2.074.262.104a1.32 1.32 0 01.076-.28 1.17 1.17 0 01.102-.204.629.629 0 00.096-.383c-.029-.39-.051-1.12.463-1.352.435-.196.97-.083 1.31.03a.98.98 0 00.139.036 1.045 1.045 0 00-.04-.08c-.532-.966-.023-1.506.251-1.708z" fill="#823C26"/><path d="M33.729 24.37c-.12-.11-.357-.054-.46.013.023.14.024.283.005.425l-.121.882c0 .071-.002.14-.006.21.295.088.442-.177.466-.359.011-.078.029-.155.053-.23.078-.246.362-.668.063-.941zm-5.695 0c.119-.11.356-.054.459.013a1.44 1.44 0 00-.004.425l.12.882c0 .071.003.14.007.21-.295.088-.442-.177-.467-.359a1.343 1.343 0 00-.052-.23c-.079-.246-.362-.668-.063-.941z" fill="#FD995B"/><path d="M33.233 24.11a1.18 1.18 0 00-.105-.211.633.633 0 01-.096-.387c.028-.39.013-1.154-.5-1.385-.435-.196-.97-.082-1.31.031-.221.074-.46.074-.682 0-.34-.113-.875-.227-1.31-.03-.514.23-.528.998-.5 1.387a.628.628 0 01-.096.384 1.167 1.167 0 00-.102.204 1.41 1.41 0 00-.08.704l.121.883c0 1.269.678 2.131 1.254 2.579a1.719 1.719 0 002.108 0 3.243 3.243 0 001.254-2.58l.12-.881a1.412 1.412 0 00-.076-.698z" fill="#F9BA8F"/><path d="M31.338 28.269a3.242 3.242 0 01-1.253-2.579l-.121-.883a1.41 1.41 0 01.08-.704 1.11 1.11 0 01.102-.204.628.628 0 00.096-.384c-.027-.361-.016-1.048.397-1.33a1.075 1.075 0 01-.1-.027c-.34-.113-.874-.227-1.31-.03-.513.23-.527.998-.498 1.387a.628.628 0 01-.097.384 1.17 1.17 0 00-.102.204 1.41 1.41 0 00-.08.704l.121.883c0 1.269.678 2.131 1.254 2.579a1.719 1.719 0 001.81.184 1.708 1.708 0 01-.299-.184z" fill="#FCAD6D"/><path d="M33.669 32.022V34h1.318s-.115-1.695-.847-2.222a.299.299 0 00-.471.245z" fill="#4FABF7"/><path d="M13.084 29.15l.002-.002-.043-.007-.002.001c-.408-.059-1.035.085-1.662-.28a4.2 4.2 0 01-.914.988 2.196 2.196 0 01-2.693 0 4.21 4.21 0 01-.914-.988c-.607.356-1.204.222-1.627.276-.051.006-.057.006-.08.01l.004.003c-.85.152-1.48.916-1.48 1.802v2.402c0 .357.29.647.647.647h9.593c.357 0 .647-.29.647-.647v-2.402c0-.886-.63-1.651-1.478-1.803z" fill="#73C3F9"/><path d="M5.679 31.98a1.55 1.55 0 011-1.44 4.408 4.408 0 001.15-.65l-.057-.04a4.213 4.213 0 01-.914-.988c-.607.356-1.204.222-1.627.276-.051.006-.057.006-.08.01l.004.003c-.85.152-1.48.916-1.48 1.802v2.402c0 .357.29.646.647.646h1.357v-2.02z" fill="#4FABF7"/><path d="M6.785 28.903c.294.475.654.843.987 1.102a2.196 2.196 0 002.693 0c.334-.26.694-.627.988-1.103a1.954 1.954 0 01-.515-.394l.001-.001c-.286-.301-.358-.543-.568-.91a2.701 2.701 0 01-2.504 0c-.22.386-.288.614-.569.91H7.3c-.17.18-.343.306-.514.396z" fill="#FCAD6D"/><path d="M7.298 28.507H7.3c-.17.18-.343.306-.514.396.281.454.622.81.943 1.066 1.206-.892 1.39-2.064 1.39-2.064-.427 0-.857-.1-1.251-.307-.22.385-.288.613-.569.909z" fill="#FD995B"/><path d="M8.609 20.51c-1.53.209-1.676 1.077-1.677 1.395a.175.175 0 01-.097.158c-.796.387-.367 2.254-.367 2.254.08.005.2.074.262.104a1.369 1.369 0 01.178-.484.628.628 0 00.096-.383c-.028-.39-.05-1.12.463-1.352.436-.196.97-.083 1.31.03.222.074.461.074.683 0 .34-.113.874-.226 1.31-.03.513.23.491.958.463 1.348a.634.634 0 00.096.387c.043.068.078.14.105.211.034.089.058.18.073.273.079-.038.227-.116.323-.102.012-.408.05-.848.05-.848.453-2.222-1.623-3.185-3.271-2.96z" fill="#A05838"/><path d="M9.127 20.48a3.547 3.547 0 00-.519.03c-1.53.209-1.676 1.077-1.676 1.395a.175.175 0 01-.098.158c-.796.387-.366 2.254-.366 2.254.08.005.2.074.262.104a1.369 1.369 0 01.178-.484.628.628 0 00.096-.384c-.029-.389-.051-1.12.463-1.351.435-.196.97-.083 1.31.03a.98.98 0 00.139.036 1.047 1.047 0 00-.04-.08c-.533-.966-.023-1.505.251-1.708z" fill="#823C26"/><path d="M11.966 24.372c-.12-.11-.357-.054-.46.013.023.14.024.283.005.425l-.121.882c0 .071-.003.141-.007.21.296.089.443-.176.467-.358.01-.079.028-.156.052-.231.079-.246.363-.667.064-.941zm-5.694 0c.119-.11.356-.054.459.013-.023.14-.024.283-.004.425l.12.882c0 .071.003.141.007.21-.295.089-.442-.176-.467-.358a1.353 1.353 0 00-.052-.231c-.079-.246-.362-.667-.063-.941z" fill="#FD995B"/><path d="M11.47 24.113a1.167 1.167 0 00-.104-.212.634.634 0 01-.096-.387c.028-.39.013-1.154-.5-1.384-.435-.196-.969-.083-1.31.03-.22.074-.46.074-.682 0-.34-.113-.875-.226-1.31-.03-.514.23-.528.998-.5 1.388a.628.628 0 01-.095.383 1.165 1.165 0 00-.103.205 1.41 1.41 0 00-.08.704l.122.882c0 1.27.677 2.132 1.253 2.58a1.718 1.718 0 002.108 0 3.243 3.243 0 001.254-2.58l.121-.882a1.41 1.41 0 00-.077-.697z" fill="#F9BA8F"/><path d="M9.576 28.271a3.243 3.243 0 01-1.253-2.579l-.121-.882a1.41 1.41 0 01.08-.704c.026-.07.06-.139.102-.205a.628.628 0 00.096-.383c-.027-.362-.016-1.049.397-1.33a1.052 1.052 0 01-.1-.027c-.34-.114-.874-.227-1.31-.031-.514.231-.527.998-.499 1.388a.628.628 0 01-.096.383 1.168 1.168 0 00-.102.205 1.41 1.41 0 00-.08.704l.121.882c0 1.27.677 2.132 1.254 2.58a1.719 1.719 0 001.81.184 1.722 1.722 0 01-.299-.185z" fill="#FCAD6D"/><path d="M11.906 32.024v1.977h1.318s-.114-1.695-.847-2.222a.299.299 0 00-.47.245z" fill="#4FABF7"/><path d="M18.446 35.148l.002-.002-.043-.006h-.001c-.409-.059-1.036.085-1.662-.28-.28.42-.608.75-.915.989a2.196 2.196 0 01-2.693 0 4.211 4.211 0 01-.914-.988c-.607.355-1.204.221-1.627.275-.05.007-.057.006-.08.01l.004.004c-.85.151-1.48.915-1.48 1.801v2.402c0 .357.29.647.647.647h9.593c.357 0 .647-.29.647-.647v-2.402c0-.885-.629-1.65-1.478-1.803z" fill="#73C3F9"/><path d="M11.041 37.979a1.55 1.55 0 011-1.44 4.392 4.392 0 001.15-.65c-.018-.014-.038-.026-.057-.04a4.21 4.21 0 01-.914-.988c-.607.355-1.204.221-1.627.275-.05.007-.057.006-.08.01l.004.003c-.85.152-1.48.916-1.48 1.802v2.402c0 .357.29.647.647.647h1.357v-2.021z" fill="#4FABF7"/><path d="M12.148 34.901c.293.475.653.843.986 1.102a2.196 2.196 0 002.694 0c.333-.259.693-.627.987-1.103a1.954 1.954 0 01-.514-.394c-.286-.302-.358-.543-.568-.91a2.7 2.7 0 01-2.504 0c-.22.386-.287.614-.568.91-.17.18-.342.306-.513.395z" fill="#FCAD6D"/><path d="M12.66 34.505l.002.001c-.17.18-.343.305-.514.395.28.454.621.81.942 1.066 1.207-.892 1.391-2.063 1.391-2.063-.428 0-.857-.101-1.252-.308-.22.385-.287.614-.568.91z" fill="#FD995B"/><path d="M13.971 26.51c-1.53.208-1.676 1.075-1.677 1.394a.175.175 0 01-.097.158c-.796.387-.367 2.254-.367 2.254.08.005.2.074.263.104a1.366 1.366 0 01.178-.484.629.629 0 00.096-.384c-.029-.39-.052-1.12.463-1.351.435-.196.97-.083 1.31.03.221.074.46.074.682 0 .34-.113.875-.226 1.31-.03.513.23.492.957.463 1.348a.635.635 0 00.096.387 1.361 1.361 0 01.178.484c.079-.038.227-.116.323-.102.012-.409.05-.849.05-.849.454-2.221-1.623-3.184-3.27-2.96z" fill="#A05838"/><path d="M14.49 26.478a3.533 3.533 0 00-.519.031c-1.53.209-1.676 1.076-1.677 1.395a.175.175 0 01-.097.158c-.796.387-.367 2.254-.367 2.254.08.005.2.074.263.104a1.366 1.366 0 01.178-.484.629.629 0 00.096-.384c-.029-.39-.052-1.12.463-1.351.435-.196.97-.083 1.31.03.045.015.092.027.139.036a1.066 1.066 0 00-.04-.08c-.533-.967-.023-1.506.25-1.709z" fill="#823C26"/><path d="M17.328 30.37c-.12-.109-.357-.054-.46.013.023.14.025.284.005.425l-.121.883c0 .07-.002.14-.006.209.295.09.442-.176.467-.358.01-.079.028-.156.052-.231.078-.245.362-.667.063-.94zm-5.695 0c.12-.109.357-.054.46.013-.023.14-.024.284-.005.425l.122.883c0 .07.002.14.006.209-.296.09-.442-.176-.467-.358a1.345 1.345 0 00-.052-.231c-.079-.245-.362-.667-.064-.94z" fill="#FD995B"/><path d="M16.833 30.11a1.18 1.18 0 00-.105-.21.633.633 0 01-.096-.387c.028-.39.013-1.154-.5-1.385-.435-.196-.97-.082-1.31.03-.221.074-.46.074-.682 0-.34-.112-.875-.226-1.31-.03-.514.231-.528.999-.5 1.388a.628.628 0 01-.095.384 1.166 1.166 0 00-.103.204 1.41 1.41 0 00-.08.704l.121.883c0 1.269.678 2.131 1.254 2.579a1.719 1.719 0 002.108 0 3.243 3.243 0 001.254-2.58l.12-.882a1.413 1.413 0 00-.076-.697z" fill="#F9BA8F"/><path d="M14.939 34.27a3.243 3.243 0 01-1.254-2.58l-.121-.882a1.41 1.41 0 01.08-.704c.027-.069.06-.139.102-.204a.629.629 0 00.096-.384c-.026-.362-.016-1.048.397-1.33a1.075 1.075 0 01-.099-.027c-.34-.113-.875-.227-1.31-.03-.514.23-.528.998-.5 1.387a.628.628 0 01-.095.384 1.166 1.166 0 00-.103.204 1.41 1.41 0 00-.08.704l.121.883c0 1.269.678 2.131 1.254 2.579a1.719 1.719 0 001.81.184 1.718 1.718 0 01-.298-.184z" fill="#FCAD6D"/><path d="M17.269 38.023V40h1.317s-.114-1.695-.847-2.222a.299.299 0 00-.47.245z" fill="#4FABF7"/><path d="M29.329 35.146l.002-.002-.043-.007-.001.001c-.409-.059-1.036.084-1.662-.28-.28.42-.608.75-.915.988a2.196 2.196 0 01-2.693 0 4.21 4.21 0 01-.914-.988c-.607.356-1.204.222-1.627.276-.051.006-.057.006-.08.01l.004.003c-.85.152-1.48.916-1.48 1.802v2.402c0 .357.29.647.647.647h9.593c.357 0 .647-.29.647-.647v-2.402c0-.886-.629-1.651-1.478-1.803z" fill="#73C3F9"/><path d="M21.924 37.977a1.55 1.55 0 011-1.441c.466-.18.843-.407 1.15-.649l-.057-.04a4.21 4.21 0 01-.914-.989c-.607.356-1.204.222-1.627.276-.051.006-.057.006-.08.01l.004.003c-.85.152-1.48.916-1.48 1.802v2.402c0 .357.29.647.647.647h1.357v-2.021z" fill="#4FABF7"/><path d="M23.03 34.899c.294.475.654.843.987 1.102a2.196 2.196 0 002.694 0c.333-.26.693-.627.987-1.103a1.956 1.956 0 01-.514-.394v-.001c-.286-.301-.358-.543-.568-.91a2.701 2.701 0 01-2.504 0c-.22.386-.287.614-.568.91-.17.18-.342.306-.514.396z" fill="#FCAD6D"/><path d="M23.544 34.503c-.17.18-.342.306-.514.396.281.454.622.81.943 1.066 1.206-.892 1.39-2.064 1.39-2.064-.427 0-.857-.1-1.251-.307-.22.385-.288.613-.568.909z" fill="#FD995B"/><path d="M24.854 26.507c-1.53.208-1.676 1.076-1.677 1.394a.175.175 0 01-.097.158c-.796.387-.367 2.254-.367 2.254.08.005.2.074.262.104a1.368 1.368 0 01.178-.484.629.629 0 00.096-.383c-.028-.39-.05-1.12.463-1.352.436-.196.97-.082 1.31.03.222.074.462.074.683 0 .34-.113.875-.226 1.31-.03.513.23.492.958.463 1.349a.634.634 0 00.096.386 1.365 1.365 0 01.178.484c.079-.038.227-.116.324-.102.011-.408.049-.848.049-.848.453-2.222-1.623-3.185-3.271-2.96z" fill="#A05838"/><path d="M25.373 26.476a3.535 3.535 0 00-.519.03c-1.53.21-1.676 1.077-1.677 1.395a.175.175 0 01-.097.158c-.796.388-.367 2.254-.367 2.254.08.006.2.074.262.105a1.364 1.364 0 01.178-.484.629.629 0 00.096-.384c-.028-.39-.05-1.12.463-1.352.436-.196.97-.082 1.31.031.046.015.093.026.14.035a1.048 1.048 0 00-.04-.08c-.533-.966-.023-1.505.25-1.708z" fill="#823C26"/><path d="M28.211 30.368c-.12-.11-.357-.054-.46.013.023.14.024.284.005.425l-.121.883c0 .07-.002.14-.007.209.296.09.443-.176.467-.358a1.29 1.29 0 01.053-.231c.078-.245.362-.667.063-.94zm-5.695 0c.12-.11.357-.054.46.013-.023.14-.024.284-.005.425l.121.883c0 .07.002.14.007.209-.296.09-.443-.176-.467-.358a1.351 1.351 0 00-.053-.231c-.078-.245-.362-.667-.063-.94z" fill="#FD995B"/><path d="M27.716 30.108a1.18 1.18 0 00-.105-.21.633.633 0 01-.096-.388c.029-.39.013-1.154-.5-1.385-.435-.195-.969-.082-1.31.031a1.081 1.081 0 01-.682 0c-.34-.113-.875-.226-1.31-.03-.514.23-.528.998-.5 1.387a.628.628 0 01-.095.384 1.167 1.167 0 00-.103.205 1.41 1.41 0 00-.08.704l.122.882a3.24 3.24 0 001.253 2.579 1.719 1.719 0 002.109 0 3.243 3.243 0 001.253-2.579l.121-.882a1.411 1.411 0 00-.077-.698z" fill="#F9BA8F"/><path d="M25.822 34.267a3.243 3.243 0 01-1.254-2.579l-.12-.882a1.41 1.41 0 01.079-.704 1.17 1.17 0 01.102-.204.629.629 0 00.096-.384c-.026-.362-.016-1.049.398-1.33a1.044 1.044 0 01-.1-.027c-.34-.114-.875-.227-1.31-.031-.514.231-.528.998-.5 1.388a.628.628 0 01-.095.384 1.166 1.166 0 00-.103.204 1.41 1.41 0 00-.08.704l.122.883c0 1.269.677 2.13 1.253 2.578a1.718 1.718 0 001.81.185 1.723 1.723 0 01-.298-.185z" fill="#FCAD6D"/><path d="M28.151 38.02v1.977h1.318s-.114-1.695-.847-2.222a.299.299 0 00-.47.245z" fill="#4FABF7"/></svg>