<svg width="40" height="40" fill="none" xmlns="http://www.w3.org/2000/svg"><g clip-path="url(#clip0)"><path d="M38.258 26.622c.573-1.82.883-3.755.883-5.763 0-10.571-8.57-19.14-19.14-19.14C9.428 1.718.858 10.287.858 20.858c0 2.008.31 3.944.884 5.762h36.514z" fill="#FF4155"/><path d="M35.675 12.853V3.23A3.23 3.23 0 0032.445 0H7.554a3.23 3.23 0 00-3.23 3.23v9.623h31.35z" fill="#167CC1"/><path d="M15.11 8.144c-2.341-.808-1.614-2.998-1.614-2.998-.338-.339 0-.67 0-.67V2.871c-.323-.323 0-.67 0-.67-1.323-1.166 0-2.202 0-2.202h-5.94a3.23 3.23 0 00-3.23 3.23v9.623h10.452l.331-4.709z" fill="#0E62A8"/><path d="M6.527 34.453A19.079 19.079 0 0020 40a19.079 19.079 0 0013.474-5.547V4.983H6.527v29.47z" fill="#73C3F9"/><path d="M6.527 34.453a19.15 19.15 0 007.08 4.451v-3.347c-1.553-1.208 0-2.408 0-2.408-2.256-1.794 0-3.645 0-3.645l1.502-21.36c-2.34-.808-1.612-2.999-1.612-2.999a.536.536 0 01-.115-.163H6.527v29.471z" fill="#4FABF7"/><path d="M34.735 33.076H5.266a19.33 19.33 0 002.474 2.481h9.358a1.2 1.2 0 011.062.636 2.096 2.096 0 003.709 0 1.2 1.2 0 011.062-.636h9.33c.898-.75 1.727-1.58 2.474-2.48zM4.12 11.44a2.66 2.66 0 00-2.416 2.64v12.417a19.056 19.056 0 002.417 5.052V11.44zm34.177 15.057V14.08a2.66 2.66 0 00-2.39-2.638v20.067a19.06 19.06 0 002.39-5.01z" fill="#FFB332"/><path d="M36.034 31.315v-1.231a.621.621 0 01-.856.576 18.703 18.703 0 00-15.164.38v2.109h14.66c.489-.583.943-1.195 1.36-1.834z" fill="#D3DCFB"/><path d="M4.85 30.66a.621.621 0 01-.857-.576v1.272c.41.624.855 1.223 1.333 1.793h14.687v-2.11a18.703 18.703 0 00-15.163-.38z" fill="#BEC8F7"/><path d="M32.444 2.201H7.556c-.566 0-1.03.463-1.03 1.03v1.915h26.947V3.23c0-.567-.463-1.03-1.029-1.03z" fill="#2A428C"/><path d="M13.497 4.475V2.872c-.323-.323 0-.67 0-.67h-5.94c-.567 0-1.03.462-1.03 1.029v1.915h6.97c-.339-.339 0-.67 0-.67z" fill="#1C2E7A"/><path d="M9.629 4.24a.802.802 0 10-1.134-1.133.802.802 0 001.134 1.134z" fill="#FF4155"/><path d="M12.082 3.673a.802.802 0 11-1.604 0 .802.802 0 011.604 0z" fill="#FFDD40"/><path d="M13.807 4.41a.802.802 0 10-.615-1.481.802.802 0 00.615 1.481z" fill="#38C674"/><path d="M24.976 4.285H16.93a.612.612 0 010-1.223h8.045a.611.611 0 110 1.223zm6.534 0h-.697a.611.611 0 110-1.223h.697a.611.611 0 110 1.223zm-2.423 0h-.697a.611.611 0 110-1.223h.697a.611.611 0 110 1.223z" fill="#3C58A0"/><path d="M35.665 9.516a18.703 18.703 0 00-15.65.17v21.55a18.703 18.703 0 0115.163-.38.621.621 0 00.856-.576V10.085a.623.623 0 00-.369-.569z" fill="#E9EFFF"/><path d="M4.362 9.516a18.703 18.703 0 0115.651.17v21.55a18.703 18.703 0 00-15.163-.38.621.621 0 01-.857-.576V10.085c0-.246.145-.468.37-.569z" fill="#D3DCFB"/><path d="M12.003 26.01V12.514c0-2.013 1.303-3.736 3.106-4.37A18.702 18.702 0 004.362 9.516a.624.624 0 00-.369.569V30.28c0 .441.449.745.857.576a18.7 18.7 0 018.756-1.352 4.622 4.622 0 01-1.603-3.494zm21.738-13.157a.61.61 0 01-.187-.03 18.167 18.167 0 00-1.597-.433.612.612 0 01.266-1.194 19.38 19.38 0 011.705.463.612.612 0 01-.187 1.194z" fill="#BEC8F7"/><path d="M6.285 12.853a.612.612 0 01-.186-1.194c.558-.18 1.132-.335 1.705-.463a.61.61 0 11.266 1.194 18.17 18.17 0 00-1.597.433.61.61 0 01-.188.03zm11.437 2.472a.61.61 0 01-.187-.029 17.986 17.986 0 00-11.062 0 .612.612 0 01-.374-1.165 19.201 19.201 0 0111.81 0 .612.612 0 01-.187 1.194z" fill="#A8B7EF"/><path d="M22.306 15.325a.612.612 0 01-.187-1.193 19.202 19.202 0 0111.81-.001.612.612 0 01-.374 1.164 17.987 17.987 0 00-11.062 0 .609.609 0 01-.187.03z" fill="#BEC8F7"/><path d="M17.722 17.797a.61.61 0 01-.187-.03 17.986 17.986 0 00-11.062 0 .611.611 0 11-.374-1.165 19.2 19.2 0 0111.81.001.611.611 0 01-.187 1.194z" fill="#A8B7EF"/><path d="M22.306 17.797a.612.612 0 01-.187-1.194 19.2 19.2 0 0111.81 0 .611.611 0 11-.374 1.164 17.987 17.987 0 00-11.062 0 .609.609 0 01-.187.03z" fill="#BEC8F7"/><path d="M17.722 20.269a.61.61 0 01-.187-.03 17.987 17.987 0 00-11.062 0 .611.611 0 11-.374-1.165 19.203 19.203 0 0111.81.001.612.612 0 01-.187 1.194z" fill="#A8B7EF"/><path d="M22.306 20.269a.612.612 0 01-.187-1.194 19.202 19.202 0 0111.81 0 .612.612 0 01-.374 1.164 17.986 17.986 0 00-11.062 0 .61.61 0 01-.187.03z" fill="#BEC8F7"/><path d="M17.721 22.74a.61.61 0 01-.187-.029 17.986 17.986 0 00-11.062 0 .612.612 0 01-.373-1.165 19.2 19.2 0 0111.81 0 .611.611 0 01-.188 1.194z" fill="#A8B7EF"/><path d="M22.306 22.74a.612.612 0 01-.187-1.193 19.202 19.202 0 0111.81 0 .612.612 0 01-.374 1.164 17.986 17.986 0 00-11.062 0 .612.612 0 01-.187.03z" fill="#BEC8F7"/><path d="M17.722 25.212a.61.61 0 01-.187-.03 17.987 17.987 0 00-11.062 0 .612.612 0 01-.374-1.165 19.203 19.203 0 0111.81.001.612.612 0 01-.187 1.194z" fill="#A8B7EF"/><path d="M22.306 25.212a.612.612 0 01-.187-1.194 19.202 19.202 0 0111.81 0 .612.612 0 01-.374 1.164 17.986 17.986 0 00-11.062 0 .61.61 0 01-.187.03z" fill="#BEC8F7"/><path d="M17.722 27.684a.61.61 0 01-.187-.03 17.986 17.986 0 00-11.062 0 .611.611 0 11-.374-1.165 19.2 19.2 0 0111.81.001.611.611 0 01-.187 1.194z" fill="#A8B7EF"/><path d="M22.306 27.684a.612.612 0 01-.187-1.194 19.2 19.2 0 0111.81 0 .612.612 0 01-.374 1.164 17.987 17.987 0 00-11.062 0 .609.609 0 01-.187.03z" fill="#BEC8F7"/></g><defs><clipPath id="clip0"><path fill="#fff" d="M0 0h40v40H0z"/></clipPath></defs></svg>