<svg width="560" height="560" fill="none" xmlns="http://www.w3.org/2000/svg"><g clip-path="url(#clip0)"><path d="M140 140h140v140H140V140z" fill="#FDE9D4"/><path d="M265.355 194.645c19.526 19.526 19.526 51.184 0 70.711-19.526 19.526-51.184 19.526-70.711 0-19.526-19.527-19.526-51.185 0-70.711 19.527-19.526 51.185-19.526 70.711 0z" fill="#FFCC1A"/><path d="M194.644 194.645a49.998 49.998 0 000 70.711 50.004 50.004 0 0070.711 0L230 230l-35.356-35.355z" fill="#000"/><path d="M280 173.5V280h-84.5L280 173.5z" fill="#236967"/><path d="M420 0h140v140H420V0z" fill="#FFCC1A"/><path d="M485.833 45h8.333v50h-8.333V45z" fill="#fff"/><path d="M469.376 55.269l5.893-5.893 35.355 35.356-5.893 5.892-35.355-35.355z" fill="#fff"/><path d="M510.624 55.269l-5.893-5.893-35.355 35.356 5.893 5.892 35.355-35.355z" fill="#fff"/><path d="M465 74.167v-8.334h50v8.334h-50zM485 120a5 5 0 1010 0 5 5 0 00-10 0zm50-50a5 5 0 1010 0 5 5 0 00-10 0zm-100 0a5 5 0 1010 0 5 5 0 00-10 0zm50-50a5 5 0 1010 0 5 5 0 00-10 0z" fill="#fff"/><path d="M420 140V90.5L521 140H420zM280 280h140v140H280V280z" fill="#236967"/><path d="M420 280a69.997 69.997 0 01-20.503 49.497 69.997 69.997 0 01-98.994 0A69.997 69.997 0 01280 280h140z" fill="#FFCC1A"/><path fill-rule="evenodd" clip-rule="evenodd" d="M354.167 363h-6.334v48h6.334v-48zm-7.334-1v50h8.334v-50h-8.334z" fill="#fff"/><path fill-rule="evenodd" clip-rule="evenodd" d="M336.269 367.79l-4.479 4.479 33.941 33.941 4.479-4.478-33.941-33.942zm-5.893 4.479l35.355 35.355 5.893-5.892-35.355-35.356-5.893 5.893z" fill="#fff"/><path fill-rule="evenodd" clip-rule="evenodd" d="M365.731 367.79l4.479 4.479-33.941 33.941-4.479-4.478 33.941-33.942zm5.893 4.479l-35.355 35.355-5.893-5.892 35.355-35.356 5.893 5.893z" fill="#fff"/><path fill-rule="evenodd" clip-rule="evenodd" d="M327 383.833v6.334h48v-6.334h-48zm-1 7.334h50v-8.334h-50v8.334z" fill="#fff"/><path d="M280 20c0-11.046 8.954-20 20-20h120v140H280V20z" fill="#FDE9D4"/><path d="M280 100C280 44.772 324.772 0 380 0h40v140H280v-40z" fill="#FDE9D4"/><path d="M350 70c0-38.66 31.34-70 70-70v140c-38.66 0-70-31.34-70-70z" fill="#FE7167"/><path d="M296 70.355L331.355 35l35.356 35.355-35.356 35.356L296 70.355z" fill="#FFCC1A"/><path d="M338 70a7 7 0 11-14 0 7 7 0 0114 0z" fill="#000"/><path d="M420 140V90.5L363 140h57z" fill="#236967"/><path d="M140 140v140H0v-40c0-55.228 44.772-100 100-100h40z" fill="#FE7167"/><path d="M96 250c-11.046 0-20-8.954-20-20 0-11.045 8.954-20 20-20s20 8.955 20 20c0 11.046-8.954 20-20 20z" fill="#000"/><path d="M76 250c-11.046 0-20-8.954-20-20 0-11.045 8.954-20 20-20s20 8.955 20 20c0 11.046-8.954 20-20 20z" fill="#FDE9D4"/><path d="M420 140h140v140H420V140z" fill="#FE7167"/><path d="M521 140l39 140H420V140h101z" fill="#236967"/><path d="M420 280a69.997 69.997 0 0120.503-49.497 69.997 69.997 0 0198.994 0A69.997 69.997 0 01560 280h-12.892a57.108 57.108 0 10-114.216 0H420z" fill="#FDE9D4"/><path d="M459.92 284c0 11.023-8.937 19.96-19.96 19.96-11.024 0-19.96-8.937-19.96-19.96 0-11.024 8.936-19.96 19.96-19.96 11.023 0 19.96 8.936 19.96 19.96z" fill="#FDE9D4"/><path d="M493.655 284c0 11.023-8.936 19.96-19.96 19.96-11.023 0-19.96-8.937-19.96-19.96 0-11.024 8.937-19.96 19.96-19.96 11.024 0 19.96 8.936 19.96 19.96z" fill="#FDE9D4"/><path d="M527.389 284c0 11.023-8.936 19.96-19.959 19.96-11.024 0-19.96-8.937-19.96-19.96 0-11.024 8.936-19.96 19.96-19.96 11.023 0 19.959 8.936 19.959 19.96z" fill="#FDE9D4"/><path d="M560.001 284c0 11.023-8.937 19.96-19.96 19.96-11.024 0-19.96-8.937-19.96-19.96 0-11.024 8.936-19.96 19.96-19.96 11.023 0 19.96 8.936 19.96 19.96z" fill="#FDE9D4"/><path d="M510 174c0 11.046-8.954 20-20 20s-20-8.954-20-20 8.954-20 20-20 20 8.954 20 20z" fill="#FC8B4C"/><path d="M280 140h140v140H280V140z" fill="#FFCC1A"/><path d="M280.91 151.517l10.606-10.607 42.427 42.427-10.607 10.606-42.426-42.426z" fill="#fff"/><path d="M291.517 193.943l-10.607-10.606 42.426-42.427 10.607 10.607-42.426 42.426z" fill="#fff"/><path d="M363 140l-83 33.5V280h140V140h-57z" fill="#236967"/><path d="M350 218l33 62h-66l33-62z" fill="#FE7167"/><path d="M351 206a33.852 33.852 0 0020 20 33.852 33.852 0 00-20 20 33.852 33.852 0 00-20-20 33.852 33.852 0 0020-20z" fill="#FDE9D4"/><path d="M420 280h140v140H420V280z" fill="#236967"/><path d="M521 334.5c0 16.845-13.655 30.5-30.5 30.5S460 351.345 460 334.5s13.655-30.5 30.5-30.5 30.5 13.655 30.5 30.5z" fill="#FFCC1A"/><path d="M521 365.5c0 16.845-13.655 30.5-30.5 30.5S460 382.345 460 365.5s13.655-30.5 30.5-30.5 30.5 13.655 30.5 30.5z" fill="#fff"/><path fill-rule="evenodd" clip-rule="evenodd" d="M461.393 333.962c-.461.186-.925.365-1.393.538a51.627 51.627 0 0130.5 30.5 51.627 51.627 0 0130.5-30.5 51.627 51.627 0 01-30.5-30.5 51.627 51.627 0 01-29.107 29.962zm1.312.538a52.62 52.62 0 0127.795 27.795 52.62 52.62 0 0127.795-27.795 52.62 52.62 0 01-27.795-27.795 52.62 52.62 0 01-27.795 27.795z" fill="#fff"/><path fill-rule="evenodd" clip-rule="evenodd" d="M461.393 364.962c-.461.186-.925.365-1.393.538a51.627 51.627 0 0130.5 30.5 51.627 51.627 0 0130.5-30.5 51.627 51.627 0 01-30.5-30.5 51.627 51.627 0 01-29.107 29.962zm1.312.538a52.62 52.62 0 0127.795 27.795 52.62 52.62 0 0127.795-27.795 52.62 52.62 0 01-27.795-27.795 52.62 52.62 0 01-27.795 27.795z" fill="#FDD503"/><path d="M140 280h140v140H140V280z" fill="#000"/><path d="M140 420v-74.5l55.5-65.5H280v140H140z" fill="#236967"/><path d="M140.135 345.661a69.999 69.999 0 00123.22 49.652 70.004 70.004 0 006.478-81.645 69.996 69.996 0 00-75.429-31.908l1.09 4.767a65.107 65.107 0 0170.159 29.68 65.102 65.102 0 019.252 38.943 65.11 65.11 0 01-129.889-9.186l-4.881-.303z" fill="#FDE9D4"/><path d="M155.106 346.591a54.997 54.997 0 0068.066 56.808 54.999 54.999 0 00-25.426-107.016l.856 3.746a51.152 51.152 0 0155.125 23.319 51.157 51.157 0 11-94.786 23.381l-3.835-.238z" fill="#FE7167"/><path d="M170.077 347.521a39.991 39.991 0 006.094 23.823 39.997 39.997 0 0064.318 4.549 40.003 40.003 0 00-39.401-64.888l.623 2.725a37.207 37.207 0 0145.378 39.213 37.206 37.206 0 01-74.223-5.249l-2.789-.173z" fill="#FDE9D4"/><path d="M0 280h140v140H0V280z" fill="#FFCC1A"/><path d="M60 383c0 13.807-11.193 25-25 25s-25-11.193-25-25 11.193-25 25-25 25 11.193 25 25z" fill="#FC8B4C"/><path d="M140 345.5V420H0l140-74.5z" fill="#236967"/><path d="M35 280a59.24 59.24 0 0035 35 59.24 59.24 0 00-35 35 59.24 59.24 0 00-35-35 59.24 59.24 0 0035-35zm70 0a59.24 59.24 0 0035 35 59.24 59.24 0 00-35 35 59.24 59.24 0 00-35-35 59.24 59.24 0 0035-35z" fill="#fff"/><path d="M35 300a25.386 25.386 0 0015 15 25.39 25.39 0 00-15 15 25.39 25.39 0 00-15-15 25.386 25.386 0 0015-15z" fill="#236967"/><path d="M420 560h140V420H420v140z" fill="#FE7167"/><path d="M490 465l-30 50h60l-30-50z" fill="#fff"/><path d="M477 560h26v-45h-26v45zm23-120c0-5.523-4.477-10-10-10s-10 4.477-10 10 4.477 10 10 10 10-4.477 10-10zm30 0c0-5.523-4.477-10-10-10s-10 4.477-10 10 4.477 10 10 10 10-4.477 10-10zm-60 0c0-5.523-4.477-10-10-10s-10 4.477-10 10 4.477 10 10 10 10-4.477 10-10z" fill="#000"/><path d="M280 420h140v140H280V420z" fill="#FDD503"/><path d="M285.91 436.516l10.607-10.606 42.426 42.426-10.606 10.607-42.427-42.427z" fill="#fff"/><path d="M296.517 478.943l-10.607-10.607 42.426-42.426 10.607 10.606-42.426 42.427zm-10.607 32.426l10.607-10.606 42.426 42.426-10.606 10.607-42.427-42.427z" fill="#fff"/><path d="M296.517 553.796l-10.607-10.607 42.426-42.426 10.607 10.606-42.426 42.427zm64.246-117.28l10.606-10.606 42.427 42.426-10.607 10.607-42.426-42.427z" fill="#fff"/><path d="M371.369 478.943l-10.606-10.607 42.426-42.426 10.607 10.606-42.427 42.427zm-10.606 32.426l10.606-10.606 42.427 42.426-10.607 10.607-42.426-42.427z" fill="#fff"/><path d="M371.369 553.796l-10.606-10.607 42.426-42.426 10.607 10.606-42.427 42.427z" fill="#fff"/><path d="M280 490a69.997 69.997 0 01-20.503 49.497 69.997 69.997 0 01-98.994 0A69.997 69.997 0 01140 490h140z" fill="#FC8B4C"/><path d="M210 455c0 19.33-15.67 35-35 35s-35-15.67-35-35 15.67-35 35-35 35 15.67 35 35z" fill="#FFCC1A"/><path d="M280 455c0 19.33-15.67 35-35 35s-35-15.67-35-35 15.67-35 35-35 35 15.67 35 35z" fill="#236967"/><path d="M280 35c0 19.33-15.67 35-35 35s-35-15.67-35-35 15.67-35 35-35 35 15.67 35 35z" fill="#FFCC1A"/><path d="M280 105c0 19.33-15.67 35-35 35s-35-15.67-35-35 15.67-35 35-35 35 15.67 35 35z" fill="#236967"/><path d="M210 105c0 19.33-15.67 35-35 35s-35-15.67-35-35 15.67-35 35-35 35 15.67 35 35z" fill="#FC8B4C"/><path fill-rule="evenodd" clip-rule="evenodd" d="M175 132c14.912 0 27-12.088 27-27s-12.088-27-27-27-27 12.088-27 27 12.088 27 27 27zm0 8c19.33 0 35-15.67 35-35s-15.67-35-35-35-35 15.67-35 35 15.67 35 35 35z" fill="#000"/><path fill-rule="evenodd" clip-rule="evenodd" d="M53 457c9.941 0 18-8.059 18-18s-8.059-18-18-18-18 8.059-18 18 8.059 18 18 18zm0 1c10.493 0 19-8.507 19-19s-8.507-19-19-19-19 8.507-19 19 8.507 19 19 19z" fill="#236967"/><path fill-rule="evenodd" clip-rule="evenodd" d="M87 457c9.941 0 18-8.059 18-18s-8.059-18-18-18-18 8.059-18 18 8.059 18 18 18zm0 1c10.493 0 19-8.507 19-19s-8.507-19-19-19-19 8.507-19 19 8.507 19 19 19z" fill="#236967"/><path fill-rule="evenodd" clip-rule="evenodd" d="M121 457c9.941 0 18-8.059 18-18s-8.059-18-18-18-18 8.059-18 18 8.059 18 18 18zm0 1c10.493 0 19-8.507 19-19s-8.507-19-19-19-19 8.507-19 19 8.507 19 19 19z" fill="#236967"/><path fill-rule="evenodd" clip-rule="evenodd" d="M121 491c9.941 0 18-8.059 18-18s-8.059-18-18-18-18 8.059-18 18 8.059 18 18 18zm0 1c10.493 0 19-8.507 19-19s-8.507-19-19-19-19 8.507-19 19 8.507 19 19 19z" fill="#236967"/><path fill-rule="evenodd" clip-rule="evenodd" d="M87 491c9.941 0 18-8.059 18-18s-8.059-18-18-18-18 8.059-18 18 8.059 18 18 18zm0 1c10.493 0 19-8.507 19-19s-8.507-19-19-19-19 8.507-19 19 8.507 19 19 19zm34 34c9.941 0 18-8.059 18-18s-8.059-18-18-18-18 8.059-18 18 8.059 18 18 18zm0 1c10.493 0 19-8.507 19-19s-8.507-19-19-19-19 8.507-19 19 8.507 19 19 19z" fill="#236967"/><path fill-rule="evenodd" clip-rule="evenodd" d="M419.379 85.741l104.993 51.457 39.481 141.729-7.706 2.146-38.519-138.271-97.007-47.543-55.503 48.2-82.641 33.355-83.884 105.723-56.018 66.111L13.93 419.504A4.006 4.006 0 0112 420H0v-8h10.971l126.454-69.648 54.981-64.889 85.117-107.277 83.359-33.645 58.497-50.8z" fill="#000"/></g><defs><clipPath id="clip0"><path fill="#fff" d="M0 0h560v560H0z"/></clipPath></defs></svg>