<svg width="345" height="285" fill="none" xmlns="http://www.w3.org/2000/svg"><path fill-rule="evenodd" clip-rule="evenodd" d="M324.166 35h-8.333v14.94l-10.564-10.564-5.893 5.893 10.564 10.564H295v8.334h14.941l-10.565 10.565L304.645 80l-5.269 5.269 10.564 10.564H295v8.334h14.941l-10.565 10.565 5.269 5.268-5.269 5.269 10.564 10.564H295v8.334h14.941l-10.565 10.565 5.893 5.892 10.564-10.564V165h8.333v-14.941l10.565 10.565 5.893-5.892-10.565-10.565H345v-8.334h-14.94l10.564-10.564-5.269-5.269 5.269-5.268-10.565-10.565H345v-8.334h-14.94l10.564-10.564L335.355 80l5.269-5.268-10.565-10.566H345v-8.333h-14.94l10.564-10.564-5.893-5.893-10.565 10.565V35zm9.941 85l-9.941-9.941v19.882l9.941-9.941zm-18.274-5v-4.94l-9.94 9.94 9.94 9.941V115zm0-25.06l-9.94-9.94 9.94-9.94v19.88zm8.333-4.94V70.06l9.941 9.94-9.941 9.941V85z" fill="#038192"/><rect y="235" width="107" height="50" rx="25" fill="#FE7167"/><rect x="2.5" y="187.5" width="102" height="45" rx="22.5" stroke="#FFCC1A" stroke-width="5"/><rect x="107" y="185" width="50" height="50" rx="25" fill="#FFCC1A"/><path d="M107 260a25.006 25.006 0 007.322 17.678A25.01 25.01 0 00132 285a25.006 25.006 0 0017.678-7.322A25.01 25.01 0 00157 260h-15.799a9.199 9.199 0 01-17.701 3.521 9.19 9.19 0 01-.701-3.521H107z" fill="#038192"/><path d="M322 242a40.003 40.003 0 00-24.693-36.955 39.996 39.996 0 00-54.538 29.151A39.996 39.996 0 00282 282v-40h40z" fill="#FFCC1A"/><circle cx="24.5" cy="54.5" r="24.5" transform="rotate(-90 24.5 54.5)" fill="#FC8B4C"/><circle cx="54" cy="18" r="5" fill="#236967"/><circle cx="90.5" cy="21.5" r="3.5" fill="#FFCC1A"/><circle cx="109" cy="2" r="2" fill="#038192"/></svg>