<svg width="289" height="736" viewBox="0 0 289 736" fill="none" xmlns="http://www.w3.org/2000/svg">
<path d="M0 298L0 438H140V398C140 342.772 95.2285 298 40 298H0Z" fill="#FC8B4C"/>
<circle r="20" transform="matrix(0 1 1 0 44 388)" fill="black"/>
<circle r="20" transform="matrix(0 1 1 0 64 388)" fill="#FDE9D4"/>
<rect y="149" width="140" height="140" fill="#FDE9D4"/>
<circle cx="70.7107" cy="220" r="50" transform="rotate(-45 70.7107 220)" fill="#236967"/>
<mask id="path-6-inside-1" fill="white">
<path d="M35.3556 184.645C25.9788 194.021 20.7109 206.739 20.7109 220C20.7109 233.261 25.9788 245.979 35.3556 255.355C44.7324 264.732 57.4501 270 70.7109 270C83.9718 270 96.6894 264.732 106.066 255.355L70.7109 220L35.3556 184.645Z"/>
</mask>
<path d="M35.3556 184.645C25.9788 194.021 20.7109 206.739 20.7109 220C20.7109 233.261 25.9788 245.979 35.3556 255.355C44.7324 264.732 57.4501 270 70.7109 270C83.9718 270 96.6894 264.732 106.066 255.355L70.7109 220L35.3556 184.645Z" fill="#FFCC1A" stroke="black" stroke-width="20" mask="url(#path-6-inside-1)"/>
<g clip-path="url(#clip0)">
<rect width="140" height="140" transform="matrix(-1 0 0 1 289 447)" fill="#FDE9D4"/>
<circle r="19.9598" transform="matrix(-1 0 0 1 269.04 591)" fill="#FE7167"/>
<circle r="19.9598" transform="matrix(-1 0 0 1 235.305 591)" fill="#FE7167"/>
<circle r="19.9598" transform="matrix(-1 0 0 1 201.57 591)" fill="#FE7167"/>
<circle r="19.9598" transform="matrix(-1 0 0 1 168.959 591)" fill="#FE7167"/>
<path d="M289 587C289 568.435 281.625 550.63 268.497 537.502C255.37 524.375 237.565 517 219 517C200.435 517 182.63 524.375 169.503 537.502C156.375 550.63 149 568.435 149 587H161.892C161.892 571.854 167.908 557.328 178.618 546.618C189.328 535.908 203.854 529.891 219 529.891C234.146 529.891 248.672 535.908 259.382 546.618C270.092 557.328 276.108 571.854 276.108 587H289Z" fill="#FE7167"/>
<circle r="20" transform="matrix(-1 0 0 1 219 481)" fill="#FC8B4C"/>
</g>
<rect x="149" y="298" width="140" height="140" fill="#236967"/>
<path d="M219 376L252 438H186L219 376Z" fill="#FC8B4C"/>
<path d="M219 364C222.429 373.266 229.734 380.571 239 384C229.734 387.429 222.429 394.734 219 404C215.571 394.734 208.266 387.429 199 384C208.266 380.571 215.571 373.266 219 364Z" fill="#FDE9D4"/>
<path d="M219 298C225 314.215 237.785 327 254 333C237.785 339 225 351.785 219 368C213 351.785 200.215 339 184 333C200.215 327 213 314.215 219 298Z" fill="#FDE9D4"/>
<rect y="447" width="140" height="140" fill="#236967"/>
<path d="M140 447C140 465.565 132.625 483.37 119.497 496.497C106.37 509.625 88.5652 517 70 517C51.4349 517 33.6301 509.625 20.5025 496.497C7.37498 483.37 2.80326e-06 465.565 0 447L70 447H140Z" fill="#FFCC1A"/>
<rect x="67.333" y="529.5" width="7.33333" height="49" stroke="#FDE9D4"/>
<rect x="51.0831" y="539.269" width="7.33333" height="49" transform="rotate(-45 51.0831 539.269)" stroke="#FDE9D4"/>
<rect x="-0.707107" width="7.33333" height="49" transform="matrix(-0.707107 -0.707107 -0.707107 0.707107 90.4169 538.769)" stroke="#FDE9D4"/>
<rect x="46.5" y="557.667" width="7.33333" height="49" transform="rotate(-90 46.5 557.667)" stroke="#FDE9D4"/>
<rect x="149" y="149" width="140" height="140" fill="#FFCC1A"/>
<rect x="154.91" y="165.516" width="15" height="60" transform="rotate(-45 154.91 165.516)" fill="#FDE9D4"/>
<rect x="165.517" y="207.943" width="15" height="60" transform="rotate(-135 165.517 207.943)" fill="#FDE9D4"/>
<rect x="154.91" y="240.369" width="15" height="60" transform="rotate(-45 154.91 240.369)" fill="#FDE9D4"/>
<rect x="165.517" y="282.796" width="15" height="60" transform="rotate(-135 165.517 282.796)" fill="#FDE9D4"/>
<rect x="229.763" y="165.516" width="15" height="60" transform="rotate(-45 229.763 165.516)" fill="#FDE9D4"/>
<rect x="240.369" y="207.943" width="15" height="60" transform="rotate(-135 240.369 207.943)" fill="#FDE9D4"/>
<rect x="229.763" y="240.369" width="15" height="60" transform="rotate(-45 229.763 240.369)" fill="#FDE9D4"/>
<rect x="240.369" y="282.796" width="15" height="60" transform="rotate(-135 240.369 282.796)" fill="#FDE9D4"/>
<rect width="140" height="140" transform="matrix(1 0 0 -1 0 140)" fill="#FE7167"/>
<path d="M70 45L40 95H100L70 45Z" fill="#FDE9D4"/>
<rect width="26" height="45" transform="matrix(1 0 0 -1 57 140)" fill="black"/>
<circle r="10" transform="matrix(1 0 0 -1 70 20)" fill="black"/>
<circle r="10" transform="matrix(1 0 0 -1 100 20)" fill="black"/>
<circle r="10" transform="matrix(1 0 0 -1 40 20)" fill="black"/>
<path d="M149 0L289 0V140H149V0Z" fill="#FDE9D4"/>
<path d="M149 70C149 31.3401 180.34 0 219 0V140C180.34 140 149 108.66 149 70Z" fill="#236967"/>
<rect x="184" y="70.3551" width="50" height="50" transform="rotate(-45 184 70.3551)" fill="#FE7167"/>
<circle cx="219" cy="69.9998" r="7" fill="black"/>
<rect y="596" width="140" height="140" fill="#FE7167"/>
<rect x="65.833" y="641" width="8.33333" height="50" fill="#FDE9D4"/>
<rect x="49.376" y="651.269" width="8.33333" height="50" transform="rotate(-45 49.376 651.269)" fill="#FDE9D4"/>
<rect width="8.33333" height="50" transform="matrix(-0.707107 -0.707107 -0.707107 0.707107 90.624 651.269)" fill="#FDE9D4"/>
<rect x="45" y="670.167" width="8.33333" height="50" transform="rotate(-90 45 670.167)" fill="#FDE9D4"/>
<circle r="5" transform="matrix(-1 0 0 1 70 716)" fill="#FDE9D4"/>
<circle r="5" transform="matrix(-1 0 0 1 120 666)" fill="#FDE9D4"/>
<circle r="5" transform="matrix(-1 0 0 1 20 666)" fill="#FDE9D4"/>
<circle r="5" transform="matrix(-1 0 0 1 70 616)" fill="#FDE9D4"/>
<rect x="149" y="596" width="140" height="140" fill="#FFCC1A"/>
<circle cx="219.5" cy="640.5" r="30.5" fill="#236967"/>
<circle cx="219.5" cy="671.5" r="30.5" fill="#FDE9D4"/>
<path d="M190.394 640.5C203.677 635.203 214.203 624.677 219.5 611.394C224.797 624.677 235.323 635.203 248.606 640.5C235.323 645.797 224.797 656.323 219.5 669.606C214.203 656.323 203.677 645.797 190.394 640.5Z" stroke="#FDE9D4"/>
<path d="M190.394 671.5C203.677 666.203 214.203 655.677 219.5 642.394C224.797 655.677 235.323 666.203 248.606 671.5C235.323 676.797 224.797 687.323 219.5 700.606C214.203 687.323 203.677 676.797 190.394 671.5Z" stroke="#236967"/>
<defs>
<clipPath id="clip0">
<rect width="140" height="140" fill="white" transform="matrix(-1 0 0 1 289 447)"/>
</clipPath>
</defs>
</svg>
